<svg width="80" height="80" viewBox="0 0 80 80" xmlns="http://www.w3.org/2000/svg" xmlns:xlink="http://www.w3.org/1999/xlink"><defs><path id="a" d="M0 0h40v80H0z"/><mask id="p" x="0" y="0" width="40" height="80" fill="#fff"><use xlink:href="#a"/></mask><path id="b" d="M31 0h19v80H31z"/><mask id="q" x="0" y="0" width="19" height="80" fill="#fff"><use xlink:href="#b"/></mask><path id="c" d="M32 4h17v5H32z"/><mask id="r" x="0" y="0" width="17" height="5" fill="#fff"><use xlink:href="#c"/></mask><path id="d" d="M1 30h19v49H1z"/><mask id="s" x="0" y="0" width="19" height="49" fill="#fff"><use xlink:href="#d"/></mask><path id="e" d="M32 11h17v5H32z"/><mask id="t" x="0" y="0" width="17" height="5" fill="#fff"><use xlink:href="#e"/></mask><path id="f" d="M32 18h17v5H32z"/><mask id="u" x="0" y="0" width="17" height="5" fill="#fff"><use xlink:href="#f"/></mask><path id="g" d="M32 25h17v5H32z"/><mask id="v" x="0" y="0" width="17" height="5" fill="#fff"><use xlink:href="#g"/></mask><path id="h" d="M32 32h17v5H32z"/><mask id="w" x="0" y="0" width="17" height="5" fill="#fff"><use xlink:href="#h"/></mask><path id="i" d="M32 39h17v5H32z"/><mask id="x" x="0" y="0" width="17" height="5" fill="#fff"><use xlink:href="#i"/></mask><path id="j" d="M32 46h17v5H32z"/><mask id="y" x="0" y="0" width="17" height="5" fill="#fff"><use xlink:href="#j"/></mask><path id="k" d="M32 53h17v5H32z"/><mask id="z" x="0" y="0" width="17" height="5" fill="#fff"><use xlink:href="#k"/></mask><path id="l" d="M32 60h17v5H32z"/><mask id="A" x="0" y="0" width="17" height="5" fill="#fff"><use xlink:href="#l"/></mask><path id="m" d="M32 67h17v5H32z"/><mask id="B" x="0" y="0" width="17" height="5" fill="#fff"><use xlink:href="#m"/></mask><path id="n" d="M32 74h17v5H32z"/><mask id="C" x="0" y="0" width="17" height="5" fill="#fff"><use xlink:href="#n"/></mask><circle id="o" cx="17" cy="17" r="7"/><mask id="D" x="0" y="0" width="14" height="14" fill="#fff"><use xlink:href="#o"/></mask></defs><g fill="none" fill-rule="evenodd"><use stroke="#706565" mask="url(#p)" stroke-width="4" fill="#EFE8E8" xlink:href="#a"/><use stroke="#706565" mask="url(#q)" stroke-width="4" fill="#B8B3B3" xlink:href="#b"/><use stroke="#706565" mask="url(#r)" stroke-width="2" fill="#DFD9D9" xlink:href="#c"/><use stroke="#706565" mask="url(#s)" stroke-width="2" fill="#C4C1C1" xlink:href="#d"/><path fill="#7B7070" d="M4 30h1v50H4zM2 3h29v1H2z"/><path fill="#7B7070" d="M2 33h18v1H2zM2 36h18v1H2zM2 39h18v1H2zM2 42h18v1H2zM2 45h18v1H2zM2 48h18v1H2zM2 51h18v1H2zM2 54h18v1H2zM2 57h18v1H2zM2 60h18v1H2zM2 63h18v1H2zM2 66h18v1H2zM2 69h18v1H2zM2 72h18v1H2zM2 75h18v1H2z"/><path fill="#7B7070" d="M7 30h1v50H7zM10 30h1v50h-1zM13 30h1v50h-1zM16 30h1v50h-1zM19 47h13v2H19zM19 67h13v2H19z"/><use stroke="#706565" mask="url(#t)" stroke-width="2" fill="#DFD9D9" xlink:href="#e"/><use stroke="#706565" mask="url(#u)" stroke-width="2" fill="#DFD9D9" xlink:href="#f"/><use stroke="#706565" mask="url(#v)" stroke-width="2" fill="#DFD9D9" xlink:href="#g"/><use stroke="#706565" mask="url(#w)" stroke-width="2" fill="#DFD9D9" xlink:href="#h"/><use stroke="#706565" mask="url(#x)" stroke-width="2" fill="#DFD9D9" xlink:href="#i"/><use stroke="#706565" mask="url(#y)" stroke-width="2" fill="#DFD9D9" xlink:href="#j"/><use stroke="#706565" mask="url(#z)" stroke-width="2" fill="#DFD9D9" xlink:href="#k"/><use stroke="#706565" mask="url(#A)" stroke-width="2" fill="#DFD9D9" xlink:href="#l"/><use stroke="#706565" mask="url(#B)" stroke-width="2" fill="#DFD9D9" xlink:href="#m"/><use stroke="#706565" mask="url(#C)" stroke-width="2" fill="#DFD9D9" xlink:href="#n"/><use stroke="#706565" mask="url(#D)" stroke-width="2" fill="#C4C1C1" xlink:href="#o"/></g></svg>