<svg width="80" height="80" viewBox="0 0 80 80" xmlns="http://www.w3.org/2000/svg" xmlns:xlink="http://www.w3.org/1999/xlink"><defs><path id="a" d="M5 18h40v50H5z"/><mask id="M" x="0" y="0" width="40" height="50" fill="#fff"><use xlink:href="#a"/></mask><path id="b" d="M10 19h5v50h-5z"/><mask id="N" x="0" y="0" width="5" height="50" fill="#fff"><use xlink:href="#b"/></mask><path id="c" d="M18 19h5v50h-5z"/><mask id="O" x="0" y="0" width="5" height="50" fill="#fff"><use xlink:href="#c"/></mask><path id="d" d="M27 19h5v50h-5z"/><mask id="P" x="0" y="0" width="5" height="50" fill="#fff"><use xlink:href="#d"/></mask><path id="e" d="M35 19h5v50h-5z"/><mask id="Q" x="0" y="0" width="5" height="50" fill="#fff"><use xlink:href="#e"/></mask><path id="f" d="M10 0h30v20H10z"/><mask id="R" x="0" y="0" width="30" height="20" fill="#fff"><use xlink:href="#f"/></mask><path id="g" d="M0 30h50v50H0z"/><mask id="S" x="0" y="0" width="50" height="50" fill="#fff"><use xlink:href="#g"/></mask><path id="h" d="M1 38h7v6H1z"/><mask id="T" x="0" y="0" width="7" height="6" fill="#fff"><use xlink:href="#h"/></mask><path id="i" d="M10 38h6v6h-6z"/><mask id="U" x="0" y="0" width="6" height="6" fill="#fff"><use xlink:href="#i"/></mask><path id="j" d="M18 38h6v6h-6z"/><mask id="V" x="0" y="0" width="6" height="6" fill="#fff"><use xlink:href="#j"/></mask><path id="k" d="M26 38h6v6h-6z"/><mask id="W" x="0" y="0" width="6" height="6" fill="#fff"><use xlink:href="#k"/></mask><path id="l" d="M34 38h6v6h-6z"/><mask id="X" x="0" y="0" width="6" height="6" fill="#fff"><use xlink:href="#l"/></mask><path id="m" d="M42 38h7v6h-7z"/><mask id="Y" x="0" y="0" width="7" height="6" fill="#fff"><use xlink:href="#m"/></mask><path id="n" d="M1 46h7v6H1z"/><mask id="Z" x="0" y="0" width="7" height="6" fill="#fff"><use xlink:href="#n"/></mask><path id="o" d="M10 46h6v6h-6z"/><mask id="aa" x="0" y="0" width="6" height="6" fill="#fff"><use xlink:href="#o"/></mask><path id="p" d="M18 46h6v6h-6z"/><mask id="ab" x="0" y="0" width="6" height="6" fill="#fff"><use xlink:href="#p"/></mask><path id="q" d="M26 46h6v6h-6z"/><mask id="ac" x="0" y="0" width="6" height="6" fill="#fff"><use xlink:href="#q"/></mask><path id="r" d="M34 46h6v6h-6z"/><mask id="ad" x="0" y="0" width="6" height="6" fill="#fff"><use xlink:href="#r"/></mask><path id="s" d="M42 46h7v6h-7z"/><mask id="ae" x="0" y="0" width="7" height="6" fill="#fff"><use xlink:href="#s"/></mask><path id="t" d="M1 54h7v6H1z"/><mask id="af" x="0" y="0" width="7" height="6" fill="#fff"><use xlink:href="#t"/></mask><path id="u" d="M10 54h6v6h-6z"/><mask id="ag" x="0" y="0" width="6" height="6" fill="#fff"><use xlink:href="#u"/></mask><path id="v" d="M18 54h6v6h-6z"/><mask id="ah" x="0" y="0" width="6" height="6" fill="#fff"><use xlink:href="#v"/></mask><path id="w" d="M26 54h6v6h-6z"/><mask id="ai" x="0" y="0" width="6" height="6" fill="#fff"><use xlink:href="#w"/></mask><path id="x" d="M34 54h6v6h-6z"/><mask id="aj" x="0" y="0" width="6" height="6" fill="#fff"><use xlink:href="#x"/></mask><path id="y" d="M42 54h7v6h-7z"/><mask id="ak" x="0" y="0" width="7" height="6" fill="#fff"><use xlink:href="#y"/></mask><path id="z" d="M1 62h7v6H1z"/><mask id="al" x="0" y="0" width="7" height="6" fill="#fff"><use xlink:href="#z"/></mask><path id="A" d="M10 62h6v6h-6z"/><mask id="am" x="0" y="0" width="6" height="6" fill="#fff"><use xlink:href="#A"/></mask><path id="B" d="M18 62h6v6h-6z"/><mask id="an" x="0" y="0" width="6" height="6" fill="#fff"><use xlink:href="#B"/></mask><path id="C" d="M26 62h6v6h-6z"/><mask id="ao" x="0" y="0" width="6" height="6" fill="#fff"><use xlink:href="#C"/></mask><path id="D" d="M34 62h6v6h-6z"/><mask id="ap" x="0" y="0" width="6" height="6" fill="#fff"><use xlink:href="#D"/></mask><path id="E" d="M42 62h7v6h-7z"/><mask id="aq" x="0" y="0" width="7" height="6" fill="#fff"><use xlink:href="#E"/></mask><path id="F" d="M1 70h7v6H1z"/><mask id="ar" x="0" y="0" width="7" height="6" fill="#fff"><use xlink:href="#F"/></mask><path id="G" d="M10 70h6v6h-6z"/><mask id="as" x="0" y="0" width="6" height="6" fill="#fff"><use xlink:href="#G"/></mask><path id="H" d="M18 70h6v6h-6z"/><mask id="at" x="0" y="0" width="6" height="6" fill="#fff"><use xlink:href="#H"/></mask><path id="I" d="M26 70h6v6h-6z"/><mask id="au" x="0" y="0" width="6" height="6" fill="#fff"><use xlink:href="#I"/></mask><path id="J" d="M34 70h6v6h-6z"/><mask id="av" x="0" y="0" width="6" height="6" fill="#fff"><use xlink:href="#J"/></mask><path id="K" d="M42 70h7v6h-7z"/><mask id="aw" x="0" y="0" width="7" height="6" fill="#fff"><use xlink:href="#K"/></mask><path id="L" d="M1 31h48v5H1z"/><mask id="ax" x="0" y="0" width="48" height="5" fill="#fff"><use xlink:href="#L"/></mask></defs><g fill="none" fill-rule="evenodd"><use stroke="#706565" mask="url(#M)" stroke-width="4" fill="#DFD9D9" xlink:href="#a"/><use stroke="#706565" mask="url(#N)" stroke-width="2" fill="#EFE8E8" xlink:href="#b"/><use stroke="#706565" mask="url(#O)" stroke-width="2" fill="#EFE8E8" xlink:href="#c"/><use stroke="#706565" mask="url(#P)" stroke-width="2" fill="#EFE8E8" xlink:href="#d"/><use stroke="#706565" mask="url(#Q)" stroke-width="2" fill="#EFE8E8" xlink:href="#e"/><use stroke="#706565" mask="url(#R)" stroke-width="4" fill="#B8B3B3" xlink:href="#f"/><use stroke="#706565" mask="url(#S)" stroke-width="4" fill="#DFD9D9" xlink:href="#g"/><use stroke="#706565" mask="url(#T)" stroke-width="2" fill="#C4C1C1" xlink:href="#h"/><use stroke="#706565" mask="url(#U)" stroke-width="2" fill="#C4C1C1" xlink:href="#i"/><use stroke="#706565" mask="url(#V)" stroke-width="2" fill="#C4C1C1" xlink:href="#j"/><use stroke="#706565" mask="url(#W)" stroke-width="2" fill="#C4C1C1" xlink:href="#k"/><use stroke="#706565" mask="url(#X)" stroke-width="2" fill="#C4C1C1" xlink:href="#l"/><use stroke="#706565" mask="url(#Y)" stroke-width="2" fill="#C4C1C1" xlink:href="#m"/><use stroke="#706565" mask="url(#Z)" stroke-width="2" fill="#C4C1C1" xlink:href="#n"/><use stroke="#706565" mask="url(#aa)" stroke-width="2" fill="#C4C1C1" xlink:href="#o"/><use stroke="#706565" mask="url(#ab)" stroke-width="2" fill="#C4C1C1" xlink:href="#p"/><use stroke="#706565" mask="url(#ac)" stroke-width="2" fill="#C4C1C1" xlink:href="#q"/><use stroke="#706565" mask="url(#ad)" stroke-width="2" fill="#C4C1C1" xlink:href="#r"/><use stroke="#706565" mask="url(#ae)" stroke-width="2" fill="#C4C1C1" xlink:href="#s"/><use stroke="#706565" mask="url(#af)" stroke-width="2" fill="#C4C1C1" xlink:href="#t"/><use stroke="#706565" mask="url(#ag)" stroke-width="2" fill="#C4C1C1" xlink:href="#u"/><use stroke="#706565" mask="url(#ah)" stroke-width="2" fill="#C4C1C1" xlink:href="#v"/><use stroke="#706565" mask="url(#ai)" stroke-width="2" fill="#C4C1C1" xlink:href="#w"/><use stroke="#706565" mask="url(#aj)" stroke-width="2" fill="#C4C1C1" xlink:href="#x"/><use stroke="#706565" mask="url(#ak)" stroke-width="2" fill="#C4C1C1" xlink:href="#y"/><use stroke="#706565" mask="url(#al)" stroke-width="2" fill="#C4C1C1" xlink:href="#z"/><use stroke="#706565" mask="url(#am)" stroke-width="2" fill="#C4C1C1" xlink:href="#A"/><use stroke="#706565" mask="url(#an)" stroke-width="2" fill="#C4C1C1" xlink:href="#B"/><use stroke="#706565" mask="url(#ao)" stroke-width="2" fill="#C4C1C1" xlink:href="#C"/><use stroke="#706565" mask="url(#ap)" stroke-width="2" fill="#C4C1C1" xlink:href="#D"/><use stroke="#706565" mask="url(#aq)" stroke-width="2" fill="#C4C1C1" xlink:href="#E"/><use stroke="#706565" mask="url(#ar)" stroke-width="2" fill="#C4C1C1" xlink:href="#F"/><use stroke="#706565" mask="url(#as)" stroke-width="2" fill="#C4C1C1" xlink:href="#G"/><use stroke="#706565" mask="url(#at)" stroke-width="2" fill="#C4C1C1" xlink:href="#H"/><use stroke="#706565" mask="url(#au)" stroke-width="2" fill="#C4C1C1" xlink:href="#I"/><use stroke="#706565" mask="url(#av)" stroke-width="2" fill="#C4C1C1" xlink:href="#J"/><use stroke="#706565" mask="url(#aw)" stroke-width="2" fill="#C4C1C1" xlink:href="#K"/><use stroke="#706565" mask="url(#ax)" stroke-width="2" fill="#EFE8E8" xlink:href="#L"/><path fill="#FFF" d="M20.418 5.952h-1.224l3.756 9.408 2.556-6.636 2.556 6.636 3.756-9.408h-1.224l-2.532 6.48-2.556-6.672-2.556 6.672"/></g></svg>