<svg width="80" height="80" viewBox="0 0 80 80" xmlns="http://www.w3.org/2000/svg" xmlns:xlink="http://www.w3.org/1999/xlink"><defs><path id="a" d="M0 0h80v60H0z"/><mask id="j" x="0" y="0" width="80" height="60" fill="#fff"><use xlink:href="#a"/></mask><path id="b" d="M1 1h3v58H1z"/><mask id="k" x="0" y="0" width="3" height="58" fill="#fff"><use xlink:href="#b"/></mask><path id="c" d="M3 5h74v6H3z"/><mask id="l" x="0" y="0" width="74" height="6" fill="#fff"><use xlink:href="#c"/></mask><path id="d" d="M3 14h74v6H3z"/><mask id="m" x="0" y="0" width="74" height="6" fill="#fff"><use xlink:href="#d"/></mask><path id="e" d="M3 23h74v6H3z"/><mask id="n" x="0" y="0" width="74" height="6" fill="#fff"><use xlink:href="#e"/></mask><path id="f" d="M3 32h74v6H3z"/><mask id="o" x="0" y="0" width="74" height="6" fill="#fff"><use xlink:href="#f"/></mask><path id="g" d="M3 41h74v6H3z"/><mask id="p" x="0" y="0" width="74" height="6" fill="#fff"><use xlink:href="#g"/></mask><path id="h" d="M26 46h28v6H26z"/><mask id="q" x="0" y="0" width="28" height="6" fill="#fff"><use xlink:href="#h"/></mask><path id="i" d="M76 1h3v58h-3z"/><mask id="r" x="0" y="0" width="3" height="58" fill="#fff"><use xlink:href="#i"/></mask></defs><g fill="none" fill-rule="evenodd"><use stroke="#706565" mask="url(#j)" stroke-width="4" fill="#DFD9D9" xlink:href="#a"/><use stroke="#706565" mask="url(#k)" stroke-width="2" fill="#DFD9D9" xlink:href="#b"/><use stroke="#706565" mask="url(#l)" stroke-width="2" fill="#B8B3B3" xlink:href="#c"/><use stroke="#706565" mask="url(#m)" stroke-width="2" fill="#B8B3B3" xlink:href="#d"/><use stroke="#706565" mask="url(#n)" stroke-width="2" fill="#B8B3B3" xlink:href="#e"/><use stroke="#706565" mask="url(#o)" stroke-width="2" fill="#B8B3B3" xlink:href="#f"/><use stroke="#706565" mask="url(#p)" stroke-width="2" fill="#B8B3B3" xlink:href="#g"/><path stroke="#706565" stroke-width="2" fill="#B8B3B3" d="M28 48h24v11H28z"/><use stroke="#706565" mask="url(#q)" stroke-width="2" fill="#DFD9D9" xlink:href="#h"/><path fill="#7B7070" d="M20 1h2v46h-2zM39 1h2v46h-2zM58 1h2v46h-2z"/><use stroke="#706565" mask="url(#r)" stroke-width="2" fill="#DFD9D9" xlink:href="#i"/></g></svg>