<svg width="80" height="80" viewBox="0 0 80 80" xmlns="http://www.w3.org/2000/svg" xmlns:xlink="http://www.w3.org/1999/xlink"><defs><path id="a" d="M14 20h50v60H14z"/><mask id="am" x="0" y="0" width="50" height="60" fill="#fff"><use xlink:href="#a"/></mask><path id="b" d="M0 0h50v80H0z"/><mask id="an" x="0" y="0" width="50" height="80" fill="#fff"><use xlink:href="#b"/></mask><path id="c" d="M52 27h8v8h-8z"/><mask id="ao" x="0" y="0" width="8" height="8" fill="#fff"><use xlink:href="#c"/></mask><path id="d" d="M4 7h6v4H4z"/><mask id="ap" x="0" y="0" width="6" height="4" fill="#fff"><use xlink:href="#d"/></mask><path id="e" d="M13 7h6v4h-6z"/><mask id="aq" x="0" y="0" width="6" height="4" fill="#fff"><use xlink:href="#e"/></mask><path id="f" d="M22 7h6v4h-6z"/><mask id="ar" x="0" y="0" width="6" height="4" fill="#fff"><use xlink:href="#f"/></mask><path id="g" d="M31 7h6v4h-6z"/><mask id="as" x="0" y="0" width="6" height="4" fill="#fff"><use xlink:href="#g"/></mask><path id="h" d="M40 7h6v4h-6z"/><mask id="at" x="0" y="0" width="6" height="4" fill="#fff"><use xlink:href="#h"/></mask><path id="i" d="M4 13h6v4H4z"/><mask id="au" x="0" y="0" width="6" height="4" fill="#fff"><use xlink:href="#i"/></mask><path id="j" d="M13 13h6v4h-6z"/><mask id="av" x="0" y="0" width="6" height="4" fill="#fff"><use xlink:href="#j"/></mask><path id="k" d="M22 13h6v4h-6z"/><mask id="aw" x="0" y="0" width="6" height="4" fill="#fff"><use xlink:href="#k"/></mask><path id="l" d="M31 13h6v4h-6z"/><mask id="ax" x="0" y="0" width="6" height="4" fill="#fff"><use xlink:href="#l"/></mask><path id="m" d="M40 13h6v4h-6z"/><mask id="ay" x="0" y="0" width="6" height="4" fill="#fff"><use xlink:href="#m"/></mask><path id="n" d="M4 19h6v4H4z"/><mask id="az" x="0" y="0" width="6" height="4" fill="#fff"><use xlink:href="#n"/></mask><path id="o" d="M13 19h6v4h-6z"/><mask id="aA" x="0" y="0" width="6" height="4" fill="#fff"><use xlink:href="#o"/></mask><path id="p" d="M22 19h6v4h-6z"/><mask id="aB" x="0" y="0" width="6" height="4" fill="#fff"><use xlink:href="#p"/></mask><path id="q" d="M31 19h6v4h-6z"/><mask id="aC" x="0" y="0" width="6" height="4" fill="#fff"><use xlink:href="#q"/></mask><path id="r" d="M40 19h6v4h-6z"/><mask id="aD" x="0" y="0" width="6" height="4" fill="#fff"><use xlink:href="#r"/></mask><path id="s" d="M4 25h6v4H4z"/><mask id="aE" x="0" y="0" width="6" height="4" fill="#fff"><use xlink:href="#s"/></mask><path id="t" d="M13 25h6v4h-6z"/><mask id="aF" x="0" y="0" width="6" height="4" fill="#fff"><use xlink:href="#t"/></mask><path id="u" d="M22 25h6v4h-6z"/><mask id="aG" x="0" y="0" width="6" height="4" fill="#fff"><use xlink:href="#u"/></mask><path id="v" d="M31 25h6v4h-6z"/><mask id="aH" x="0" y="0" width="6" height="4" fill="#fff"><use xlink:href="#v"/></mask><path id="w" d="M40 25h6v4h-6z"/><mask id="aI" x="0" y="0" width="6" height="4" fill="#fff"><use xlink:href="#w"/></mask><path id="x" d="M4 31h6v4H4z"/><mask id="aJ" x="0" y="0" width="6" height="4" fill="#fff"><use xlink:href="#x"/></mask><path id="y" d="M13 31h6v4h-6z"/><mask id="aK" x="0" y="0" width="6" height="4" fill="#fff"><use xlink:href="#y"/></mask><path id="z" d="M22 31h6v4h-6z"/><mask id="aL" x="0" y="0" width="6" height="4" fill="#fff"><use xlink:href="#z"/></mask><path id="A" d="M31 31h6v4h-6z"/><mask id="aM" x="0" y="0" width="6" height="4" fill="#fff"><use xlink:href="#A"/></mask><path id="B" d="M40 31h6v4h-6z"/><mask id="aN" x="0" y="0" width="6" height="4" fill="#fff"><use xlink:href="#B"/></mask><path id="C" d="M4 37h6v4H4z"/><mask id="aO" x="0" y="0" width="6" height="4" fill="#fff"><use xlink:href="#C"/></mask><path id="D" d="M13 37h6v4h-6z"/><mask id="aP" x="0" y="0" width="6" height="4" fill="#fff"><use xlink:href="#D"/></mask><path id="E" d="M22 37h6v4h-6z"/><mask id="aQ" x="0" y="0" width="6" height="4" fill="#fff"><use xlink:href="#E"/></mask><path id="F" d="M31 37h6v4h-6z"/><mask id="aR" x="0" y="0" width="6" height="4" fill="#fff"><use xlink:href="#F"/></mask><path id="G" d="M40 37h6v4h-6z"/><mask id="aS" x="0" y="0" width="6" height="4" fill="#fff"><use xlink:href="#G"/></mask><path id="H" d="M4 43h6v4H4z"/><mask id="aT" x="0" y="0" width="6" height="4" fill="#fff"><use xlink:href="#H"/></mask><path id="I" d="M13 43h6v4h-6z"/><mask id="aU" x="0" y="0" width="6" height="4" fill="#fff"><use xlink:href="#I"/></mask><path id="J" d="M22 43h6v4h-6z"/><mask id="aV" x="0" y="0" width="6" height="4" fill="#fff"><use xlink:href="#J"/></mask><path id="K" d="M31 43h6v4h-6z"/><mask id="aW" x="0" y="0" width="6" height="4" fill="#fff"><use xlink:href="#K"/></mask><path id="L" d="M40 43h6v4h-6z"/><mask id="aX" x="0" y="0" width="6" height="4" fill="#fff"><use xlink:href="#L"/></mask><path id="M" d="M4 49h6v4H4z"/><mask id="aY" x="0" y="0" width="6" height="4" fill="#fff"><use xlink:href="#M"/></mask><path id="N" d="M13 49h6v4h-6z"/><mask id="aZ" x="0" y="0" width="6" height="4" fill="#fff"><use xlink:href="#N"/></mask><path id="O" d="M22 49h6v4h-6z"/><mask id="ba" x="0" y="0" width="6" height="4" fill="#fff"><use xlink:href="#O"/></mask><path id="P" d="M31 49h6v4h-6z"/><mask id="bb" x="0" y="0" width="6" height="4" fill="#fff"><use xlink:href="#P"/></mask><path id="Q" d="M40 49h6v4h-6z"/><mask id="bc" x="0" y="0" width="6" height="4" fill="#fff"><use xlink:href="#Q"/></mask><path id="R" d="M4 55h6v4H4z"/><mask id="bd" x="0" y="0" width="6" height="4" fill="#fff"><use xlink:href="#R"/></mask><path id="S" d="M13 55h6v4h-6z"/><mask id="be" x="0" y="0" width="6" height="4" fill="#fff"><use xlink:href="#S"/></mask><path id="T" d="M22 55h6v4h-6z"/><mask id="bf" x="0" y="0" width="6" height="4" fill="#fff"><use xlink:href="#T"/></mask><path id="U" d="M31 55h6v4h-6z"/><mask id="bg" x="0" y="0" width="6" height="4" fill="#fff"><use xlink:href="#U"/></mask><path id="V" d="M40 55h6v4h-6z"/><mask id="bh" x="0" y="0" width="6" height="4" fill="#fff"><use xlink:href="#V"/></mask><path id="W" d="M4 61h6v4H4z"/><mask id="bi" x="0" y="0" width="6" height="4" fill="#fff"><use xlink:href="#W"/></mask><path id="X" d="M13 61h6v4h-6z"/><mask id="bj" x="0" y="0" width="6" height="4" fill="#fff"><use xlink:href="#X"/></mask><path id="Y" d="M22 61h6v4h-6z"/><mask id="bk" x="0" y="0" width="6" height="4" fill="#fff"><use xlink:href="#Y"/></mask><path id="Z" d="M31 61h6v4h-6z"/><mask id="bl" x="0" y="0" width="6" height="4" fill="#fff"><use xlink:href="#Z"/></mask><path id="aa" d="M40 61h6v4h-6z"/><mask id="bm" x="0" y="0" width="6" height="4" fill="#fff"><use xlink:href="#aa"/></mask><path id="ab" d="M4 67h6v4H4z"/><mask id="bn" x="0" y="0" width="6" height="4" fill="#fff"><use xlink:href="#ab"/></mask><path id="ac" d="M13 67h6v4h-6z"/><mask id="bo" x="0" y="0" width="6" height="4" fill="#fff"><use xlink:href="#ac"/></mask><path id="ad" d="M22 67h6v4h-6z"/><mask id="bp" x="0" y="0" width="6" height="4" fill="#fff"><use xlink:href="#ad"/></mask><path id="ae" d="M31 67h6v4h-6z"/><mask id="bq" x="0" y="0" width="6" height="4" fill="#fff"><use xlink:href="#ae"/></mask><path id="af" d="M40 67h6v4h-6z"/><mask id="br" x="0" y="0" width="6" height="4" fill="#fff"><use xlink:href="#af"/></mask><path id="ag" d="M4 73h6v4H4z"/><mask id="bs" x="0" y="0" width="6" height="4" fill="#fff"><use xlink:href="#ag"/></mask><path id="ah" d="M13 73h6v4h-6z"/><mask id="bt" x="0" y="0" width="6" height="4" fill="#fff"><use xlink:href="#ah"/></mask><path id="ai" d="M22 73h6v4h-6z"/><mask id="bu" x="0" y="0" width="6" height="4" fill="#fff"><use xlink:href="#ai"/></mask><path id="aj" d="M31 73h6v4h-6z"/><mask id="bv" x="0" y="0" width="6" height="4" fill="#fff"><use xlink:href="#aj"/></mask><path id="ak" d="M40 73h6v4h-6z"/><mask id="bw" x="0" y="0" width="6" height="4" fill="#fff"><use xlink:href="#ak"/></mask><path id="al" d="M54 37h4v20h-4z"/><mask id="bx" x="0" y="0" width="4" height="20" fill="#fff"><use xlink:href="#al"/></mask></defs><g fill="none" fill-rule="evenodd"><use stroke="#706565" mask="url(#am)" stroke-width="4" fill="#DFD9D9" xlink:href="#a"/><use stroke="#706565" mask="url(#an)" stroke-width="4" fill="#DFD9D9" xlink:href="#b"/><path fill="#7B7070" d="M0 4h50v1H0zM50 24h13v1H50z"/><use stroke="#706565" mask="url(#ao)" stroke-width="2" fill="#B8B3B3" xlink:href="#c"/><use stroke="#706565" mask="url(#ap)" stroke-width="2" fill="#B8B3B3" xlink:href="#d"/><use stroke="#706565" mask="url(#aq)" stroke-width="2" fill="#B8B3B3" xlink:href="#e"/><use stroke="#706565" mask="url(#ar)" stroke-width="2" fill="#B8B3B3" xlink:href="#f"/><use stroke="#706565" mask="url(#as)" stroke-width="2" fill="#B8B3B3" xlink:href="#g"/><use stroke="#706565" mask="url(#at)" stroke-width="2" fill="#B8B3B3" xlink:href="#h"/><use stroke="#706565" mask="url(#au)" stroke-width="2" fill="#B8B3B3" xlink:href="#i"/><use stroke="#706565" mask="url(#av)" stroke-width="2" fill="#B8B3B3" xlink:href="#j"/><use stroke="#706565" mask="url(#aw)" stroke-width="2" fill="#B8B3B3" xlink:href="#k"/><use stroke="#706565" mask="url(#ax)" stroke-width="2" fill="#B8B3B3" xlink:href="#l"/><use stroke="#706565" mask="url(#ay)" stroke-width="2" fill="#B8B3B3" xlink:href="#m"/><use stroke="#706565" mask="url(#az)" stroke-width="2" fill="#B8B3B3" xlink:href="#n"/><use stroke="#706565" mask="url(#aA)" stroke-width="2" fill="#B8B3B3" xlink:href="#o"/><use stroke="#706565" mask="url(#aB)" stroke-width="2" fill="#B8B3B3" xlink:href="#p"/><use stroke="#706565" mask="url(#aC)" stroke-width="2" fill="#B8B3B3" xlink:href="#q"/><use stroke="#706565" mask="url(#aD)" stroke-width="2" fill="#B8B3B3" xlink:href="#r"/><use stroke="#706565" mask="url(#aE)" stroke-width="2" fill="#B8B3B3" xlink:href="#s"/><use stroke="#706565" mask="url(#aF)" stroke-width="2" fill="#B8B3B3" xlink:href="#t"/><use stroke="#706565" mask="url(#aG)" stroke-width="2" fill="#B8B3B3" xlink:href="#u"/><use stroke="#706565" mask="url(#aH)" stroke-width="2" fill="#B8B3B3" xlink:href="#v"/><use stroke="#706565" mask="url(#aI)" stroke-width="2" fill="#B8B3B3" xlink:href="#w"/><use stroke="#706565" mask="url(#aJ)" stroke-width="2" fill="#B8B3B3" xlink:href="#x"/><use stroke="#706565" mask="url(#aK)" stroke-width="2" fill="#B8B3B3" xlink:href="#y"/><use stroke="#706565" mask="url(#aL)" stroke-width="2" fill="#B8B3B3" xlink:href="#z"/><use stroke="#706565" mask="url(#aM)" stroke-width="2" fill="#B8B3B3" xlink:href="#A"/><use stroke="#706565" mask="url(#aN)" stroke-width="2" fill="#B8B3B3" xlink:href="#B"/><use stroke="#706565" mask="url(#aO)" stroke-width="2" fill="#B8B3B3" xlink:href="#C"/><use stroke="#706565" mask="url(#aP)" stroke-width="2" fill="#B8B3B3" xlink:href="#D"/><use stroke="#706565" mask="url(#aQ)" stroke-width="2" fill="#B8B3B3" xlink:href="#E"/><use stroke="#706565" mask="url(#aR)" stroke-width="2" fill="#B8B3B3" xlink:href="#F"/><use stroke="#706565" mask="url(#aS)" stroke-width="2" fill="#B8B3B3" xlink:href="#G"/><use stroke="#706565" mask="url(#aT)" stroke-width="2" fill="#B8B3B3" xlink:href="#H"/><use stroke="#706565" mask="url(#aU)" stroke-width="2" fill="#B8B3B3" xlink:href="#I"/><use stroke="#706565" mask="url(#aV)" stroke-width="2" fill="#B8B3B3" xlink:href="#J"/><use stroke="#706565" mask="url(#aW)" stroke-width="2" fill="#B8B3B3" xlink:href="#K"/><use stroke="#706565" mask="url(#aX)" stroke-width="2" fill="#B8B3B3" xlink:href="#L"/><use stroke="#706565" mask="url(#aY)" stroke-width="2" fill="#B8B3B3" xlink:href="#M"/><use stroke="#706565" mask="url(#aZ)" stroke-width="2" fill="#B8B3B3" xlink:href="#N"/><use stroke="#706565" mask="url(#ba)" stroke-width="2" fill="#B8B3B3" xlink:href="#O"/><use stroke="#706565" mask="url(#bb)" stroke-width="2" fill="#B8B3B3" xlink:href="#P"/><use stroke="#706565" mask="url(#bc)" stroke-width="2" fill="#B8B3B3" xlink:href="#Q"/><use stroke="#706565" mask="url(#bd)" stroke-width="2" fill="#B8B3B3" xlink:href="#R"/><use stroke="#706565" mask="url(#be)" stroke-width="2" fill="#B8B3B3" xlink:href="#S"/><use stroke="#706565" mask="url(#bf)" stroke-width="2" fill="#B8B3B3" xlink:href="#T"/><use stroke="#706565" mask="url(#bg)" stroke-width="2" fill="#B8B3B3" xlink:href="#U"/><use stroke="#706565" mask="url(#bh)" stroke-width="2" fill="#B8B3B3" xlink:href="#V"/><use stroke="#706565" mask="url(#bi)" stroke-width="2" fill="#B8B3B3" xlink:href="#W"/><use stroke="#706565" mask="url(#bj)" stroke-width="2" fill="#B8B3B3" xlink:href="#X"/><use stroke="#706565" mask="url(#bk)" stroke-width="2" fill="#B8B3B3" xlink:href="#Y"/><use stroke="#706565" mask="url(#bl)" stroke-width="2" fill="#B8B3B3" xlink:href="#Z"/><use stroke="#706565" mask="url(#bm)" stroke-width="2" fill="#B8B3B3" xlink:href="#aa"/><use stroke="#706565" mask="url(#bn)" stroke-width="2" fill="#B8B3B3" xlink:href="#ab"/><use stroke="#706565" mask="url(#bo)" stroke-width="2" fill="#B8B3B3" xlink:href="#ac"/><use stroke="#706565" mask="url(#bp)" stroke-width="2" fill="#B8B3B3" xlink:href="#ad"/><use stroke="#706565" mask="url(#bq)" stroke-width="2" fill="#B8B3B3" xlink:href="#ae"/><use stroke="#706565" mask="url(#br)" stroke-width="2" fill="#B8B3B3" xlink:href="#af"/><use stroke="#706565" mask="url(#bs)" stroke-width="2" fill="#B8B3B3" xlink:href="#ag"/><use stroke="#706565" mask="url(#bt)" stroke-width="2" fill="#B8B3B3" xlink:href="#ah"/><use stroke="#706565" mask="url(#bu)" stroke-width="2" fill="#B8B3B3" xlink:href="#ai"/><use stroke="#706565" mask="url(#bv)" stroke-width="2" fill="#B8B3B3" xlink:href="#aj"/><use stroke="#706565" mask="url(#bw)" stroke-width="2" fill="#B8B3B3" xlink:href="#ak"/><use stroke="#706565" mask="url(#bx)" stroke-width="2" fill="#B8B3B3" xlink:href="#al"/></g></svg>