<svg width="80" height="80" viewBox="0 0 80 80" xmlns="http://www.w3.org/2000/svg" xmlns:xlink="http://www.w3.org/1999/xlink"><defs><path id="a" d="M26 0h28v8H26z"/><mask id="n" x="0" y="0" width="28" height="8" fill="#fff"><use xlink:href="#a"/></mask><path id="b" d="M0 6h80v60H0z"/><mask id="o" x="0" y="0" width="80" height="60" fill="#fff"><use xlink:href="#b"/></mask><path id="c" d="M1 7h3v58H1z"/><mask id="p" x="0" y="0" width="3" height="58" fill="#fff"><use xlink:href="#c"/></mask><path id="d" d="M3 11h74v6H3z"/><mask id="q" x="0" y="0" width="74" height="6" fill="#fff"><use xlink:href="#d"/></mask><path id="e" d="M3 20h74v6H3z"/><mask id="r" x="0" y="0" width="74" height="6" fill="#fff"><use xlink:href="#e"/></mask><path id="f" d="M3 29h74v6H3z"/><mask id="s" x="0" y="0" width="74" height="6" fill="#fff"><use xlink:href="#f"/></mask><path id="g" d="M3 38h74v6H3z"/><mask id="t" x="0" y="0" width="74" height="6" fill="#fff"><use xlink:href="#g"/></mask><path id="h" d="M3 47h74v6H3z"/><mask id="u" x="0" y="0" width="74" height="6" fill="#fff"><use xlink:href="#h"/></mask><path id="i" d="M19 7h4v58h-4z"/><mask id="v" x="0" y="0" width="4" height="58" fill="#fff"><use xlink:href="#i"/></mask><path id="j" d="M38 7h4v58h-4z"/><mask id="w" x="0" y="0" width="4" height="58" fill="#fff"><use xlink:href="#j"/></mask><path id="k" d="M57 7h4v58h-4z"/><mask id="x" x="0" y="0" width="4" height="58" fill="#fff"><use xlink:href="#k"/></mask><path id="l" d="M3 57h74v3H3z"/><mask id="y" x="0" y="0" width="74" height="3" fill="#fff"><use xlink:href="#l"/></mask><path id="m" d="M76 7h3v58h-3z"/><mask id="z" x="0" y="0" width="3" height="58" fill="#fff"><use xlink:href="#m"/></mask></defs><g fill="none" fill-rule="evenodd"><use stroke="#706565" mask="url(#n)" stroke-width="4" fill="#C4C1C1" xlink:href="#a"/><use stroke="#706565" mask="url(#o)" stroke-width="4" fill="#DFD9D9" xlink:href="#b"/><use stroke="#706565" mask="url(#p)" stroke-width="2" fill="#EFE8E8" xlink:href="#c"/><use stroke="#706565" mask="url(#q)" stroke-width="2" fill="#C4C1C1" xlink:href="#d"/><use stroke="#706565" mask="url(#r)" stroke-width="2" fill="#C4C1C1" xlink:href="#e"/><use stroke="#706565" mask="url(#s)" stroke-width="2" fill="#C4C1C1" xlink:href="#f"/><use stroke="#706565" mask="url(#t)" stroke-width="2" fill="#C4C1C1" xlink:href="#g"/><use stroke="#706565" mask="url(#u)" stroke-width="2" fill="#C4C1C1" xlink:href="#h"/><path fill-opacity=".3" fill="#000" d="M4 60h72v4H4z"/><use stroke="#706565" mask="url(#v)" stroke-width="2" fill="#EFE8E8" xlink:href="#i"/><use stroke="#706565" mask="url(#w)" stroke-width="2" fill="#EFE8E8" xlink:href="#j"/><use stroke="#706565" mask="url(#x)" stroke-width="2" fill="#EFE8E8" xlink:href="#k"/><use stroke="#706565" mask="url(#y)" stroke-width="2" fill="#EFE8E8" xlink:href="#l"/><use stroke="#706565" mask="url(#z)" stroke-width="2" fill="#EFE8E8" xlink:href="#m"/></g></svg>