<svg width="460" height="333" viewBox="0 0 460 333" xmlns="http://www.w3.org/2000/svg" xmlns:xlink="http://www.w3.org/1999/xlink"><defs><rect id="path-1" x="166" y="39" width="38" height="12" rx="6"/><mask id="mask-2" x="0" y="0" width="38" height="12" fill="#fff"><use xlink:href="#path-1"/></mask><path d="M214.34 41c-.394.555-.807 1.093-1.24 1.614V41H211V26h2.1v-3h-.026c-.572-11.134-10.64-20-22.975-20-7.957 0-14.97 3.69-19.1 9.296C175.587 4.914 183.77 0 193.1 0c14.36 0 26 11.64 26 26 0 .77-.034 1.533-.1 2.286V41h-4.66z" id="path-3"/><mask id="mask-4" x="0" y="0" width="48.099" height="42.614" fill="#fff"><use xlink:href="#path-3"/></mask><ellipse id="path-5" cx="214" cy="42" rx="6" ry="11"/><mask id="mask-6" x="0" y="0" width="12" height="22" fill="#fff"><use xlink:href="#path-5"/></mask><path d="M171 32v56h26V71.89c9.002-.994 16-8.623 16-17.886V32c0-11.598-9.402-21-21-21s-21 9.402-21 21z" id="path-7"/><mask id="mask-8" x="0" y="0" width="42" height="77" fill="#fff"><use xlink:href="#path-7"/></mask><path d="M192 31.494c0-6.9 5.595-12.494 12.5-12.494H217v2.01c0 5.517-4.48 9.99-10 9.99h-4.994c-2.212 0-4.006 1.792-4.006 4v16l-6-6V31.494z" id="path-9"/><mask id="mask-10" x="0" y="0" width="25" height="32" fill="#fff"><use xlink:href="#path-9"/></mask><path d="M169 27.004C169 18.164 176.172 11 184.998 11h24.005c1.103 0 1.997-.898 1.997-1.998V5l6 6v10c0 5.523-4.472 10-9.99 10H181c-2.21 0-4 1.792-4 4v16l-6-6v-4l-2-2V27.004z" id="path-11"/><mask id="mask-12" x="0" y="0" width="48" height="46" fill="#fff"><use xlink:href="#path-11"/></mask><path d="M228.198 327L230 254l-62.28-60.467L192 180l59.175 59.175c1.56 1.56 2.825 4.616 2.825 6.82V305.1c10.107 1.002 18 9.53 18 19.9 0 .675-.033 1.342-.1 2H228.2z" id="path-13"/><mask id="mask-14" x="0" y="0" width="104.28" height="147" fill="#fff"><use xlink:href="#path-13"/></mask><path d="M167.047 96.074C167.59 102.198 172.735 107 179 107c6.627 0 12-5.373 12-12s-5.373-12-12-12c-1.784 0-3.477.39-5 1.088l-31.463-20.52c-1.852-1.208-4.054-3.833-4.917-5.86L122 21h-18l16.864 39.63c1.732 4.07 6.13 9.322 9.84 11.74l36.343 23.704z" id="path-15"/><mask id="mask-16" x="0" y="0" width="87" height="86" fill="#fff"><use xlink:href="#path-15"/></mask><path d="M18.2 30.4c2.65-3.535 8.322-7.04 12.68-7.833L45 20 17 60l9 25H7L.062 59.85c-.586-2.126.016-5.287 1.338-7.05l16.8-22.4z" id="path-17"/><mask id="mask-18" x="0" y="0" width="44.324" height="65" fill="#fff"><use xlink:href="#path-17"/></mask><circle id="path-19" cx="20" cy="86" r="12"/><mask id="mask-20" x="0" y="0" width="24" height="24" fill="#fff"><use xlink:href="#path-19"/></mask><path d="M42.8 35.353L28 108h62l12.653-75.916L109 47h26L118.136 7.37C116.53 3.597 112.14.49 107.99.053L108 0H46.992c-4.412 0-10.14 2.865-12.79 6.4L15 32l24 10 3.8-6.647z" id="path-21"/><mask id="mask-22" x="0" y="0" width="120" height="108" fill="#fff"><use xlink:href="#path-21"/></mask><path d="M98 318.5l51-76.5-6-58h32l-1.88 63.01c-.067 2.203-1.116 5.484-2.34 7.322l-35.917 53.873C140.363 311.77 144 317.96 144 325c0 .675-.033 1.342-.1 2H98v-8.5z" id="path-23"/><mask id="mask-24" x="0" y="0" width="77" height="143" fill="#fff"><use xlink:href="#path-23"/></mask><path id="path-25" d="M81 36h160v10H81z"/><mask id="mask-26" x="0" y="0" width="160" height="10" fill="#fff"><use xlink:href="#path-25"/></mask><path id="path-27" d="M109 30h40l8 8h-56z"/><mask id="mask-28" x="0" y="0" width="56" height="8" fill="#fff"><use xlink:href="#path-27"/></mask><path id="path-29" d="M173 30h40l8 8h-56z"/><mask id="mask-30" x="0" y="0" width="56" height="8" fill="#fff"><use xlink:href="#path-29"/></mask><path id="path-31" d="M121 36h120v10H121z"/><mask id="mask-32" x="0" y="0" width="120" height="10" fill="#fff"><use xlink:href="#path-31"/></mask><path id="path-33" d="M271 40h100v10H271z"/><mask id="mask-34" x="0" y="0" width="100" height="10" fill="#fff"><use xlink:href="#path-33"/></mask><path id="path-35" d="M320 0h80l-25 50h-80z"/><mask id="mask-36" x="0" y="0" width="105" height="50" fill="#fff"><use xlink:href="#path-35"/></mask><path id="path-37" d="M326 0h80l-25 50h-80z"/><mask id="mask-38" x="0" y="0" width="105" height="50" fill="#fff"><use xlink:href="#path-37"/></mask><path id="path-39" d="M0 0h420v14H0z"/><mask id="mask-40" x="0" y="0" width="420" height="14" fill="#fff"><use xlink:href="#path-39"/></mask><path id="path-41" d="M0 0h100v14H0z"/><mask id="mask-42" x="0" y="0" width="100" height="14" fill="#fff"><use xlink:href="#path-41"/></mask><path id="path-43" d="M92 12h14v136H92z"/><mask id="mask-44" x="0" y="0" width="14" height="136" fill="#fff"><use xlink:href="#path-43"/></mask><path id="path-45" d="M8 12h14v136H8z"/><mask id="mask-46" x="0" y="0" width="14" height="136" fill="#fff"><use xlink:href="#path-45"/></mask><path id="path-47" d="M398 12h14v136h-14z"/><mask id="mask-48" x="0" y="0" width="14" height="136" fill="#fff"><use xlink:href="#path-47"/></mask><path id="path-49" d="M314 12h14v136h-14z"/><mask id="mask-50" x="0" y="0" width="14" height="136" fill="#fff"><use xlink:href="#path-49"/></mask><ellipse id="path-51" cx="171" cy="42" rx="6" ry="11"/><mask id="mask-52" x="0" y="0" width="12" height="22" fill="#fff"><use xlink:href="#path-51"/></mask><path d="M172.505 42c.162.207.327.412.495.614V24c0-11.598 10.297-21 23-21 7.957 0 14.97 3.69 19.1 9.296C210.51 4.914 202.33 0 193 0c-14.36 0-26 11.64-26 26v16h5.505z" id="path-53"/><mask id="mask-54" x="0" y="0" width="48.099" height="42.614" fill="#fff"><use xlink:href="#path-53"/></mask><path d="M169 34c2.21 0 4 3.582 4 8s-1.79 8-4 8h-2v-1.07c-1.196-1.383-2-3.97-2-6.93 0-2.96.804-5.547 2-6.93V34h2z" id="path-55"/><mask id="mask-56" x="0" y="0" width="8" height="16" fill="#fff"><use xlink:href="#path-55"/></mask><ellipse id="path-57" cx="167" cy="42" rx="4" ry="8"/><mask id="mask-58" x="0" y="0" width="8" height="16" fill="#fff"><use xlink:href="#path-57"/></mask><path d="M0 21.99c0-1.1.405-2.8.895-3.78l.66-1.322c.246-.49.483-1.344.53-1.89L3 4V0h6v4l.916 10.998c.047.553.283 1.4.528 1.89l.66 1.323c.495.99.896 2.68.896 3.78v16C12 40.205 10.203 42 8.004 42H3.996C1.79 42 0 40.2 0 37.99v-16z" id="path-59"/><mask id="mask-60" x="0" y="0" width="12" height="42" fill="#fff"><use xlink:href="#path-59"/></mask><path d="M29 21.99c0-1.1.405-2.8.895-3.78l.66-1.322c.246-.49.483-1.344.53-1.89L32 4V0h6v4l.916 10.998c.047.553.283 1.4.528 1.89l.66 1.323c.495.99.896 2.68.896 3.78v16c0 2.215-1.797 4.01-3.996 4.01h-4.008C30.79 42 29 40.2 29 37.99v-16z" id="path-61"/><mask id="mask-62" x="0" y="0" width="12" height="42" fill="#fff"><use xlink:href="#path-61"/></mask><path d="M0 21.99c0-1.1.405-2.8.895-3.78l.66-1.322c.246-.49.483-1.344.53-1.89L3 4V0h6v4l.916 10.998c.047.553.283 1.4.528 1.89l.66 1.323c.495.99.896 2.68.896 3.78v16C12 40.205 10.203 42 8.004 42H3.996C1.79 42 0 40.2 0 37.99v-16z" id="path-63"/><mask id="mask-64" x="0" y="0" width="12" height="42" fill="#fff"><use xlink:href="#path-63"/></mask></defs><g id="Page-1" fill="none" fill-rule="evenodd"><g id="Artboard"><g id="illustration-dj"><use id="Rectangle-99" stroke="#979797" mask="url(#mask-2)" stroke-width="4" fill="#D8D8D8" xlink:href="#path-1"/><use id="Combined-Shape" stroke="#706565" mask="url(#mask-4)" stroke-width="4" fill="#B8B3B3" xlink:href="#path-3"/><use id="Oval-18-Copy-3" stroke="#706565" mask="url(#mask-6)" stroke-width="4" fill="#B8B3B3" xlink:href="#path-5"/><use id="Combined-Shape" stroke="#706565" mask="url(#mask-8)" stroke-width="4" fill="#EFE8E8" xlink:href="#path-7"/><path d="M215 45v-9h-2v9h2zm-18 31c-7.846 0-14.52-5.02-16.984-12.022C183.243 68.814 188.75 72 195 72c.676 0 1.343-.037 2-.11V76z" id="Combined-Shape" fill-opacity=".3" fill="#000"/><use id="Rectangle-98" stroke="#706565" mask="url(#mask-10)" stroke-width="4" fill="#DFD9D9" transform="matrix(-1 0 0 1 409 0)" xlink:href="#path-9"/><path d="M217 31.494c0-6.9-5.595-12.494-12.5-12.494H192v2.01c0 5.517 4.48 9.99 10 9.99h4.994c2.212 0 4.006 1.792 4.006 4v16l6-6V31.494z" id="Rectangle-98-Copy" fill-opacity=".2" fill="#000"/><path d="M169 29.004C169 20.164 176.172 13 184.998 13h24.005c1.103 0 1.997-.898 1.997-1.998V7l6 6v10c0 5.523-4.472 10-9.99 10H181c-2.21 0-4 1.792-4 4v16l-6-6v-4l-2-2V29.004z" id="Rectangle-98-Copy-3" fill-opacity=".3" fill="#000"/><use id="Rectangle-98-Copy-2" stroke="#706565" mask="url(#mask-12)" stroke-width="4" fill="#DFD9D9" xlink:href="#path-11"/><path d="M183.5 40h4.5v1h-4v2h-1v-3h.5zM197 55h-3v1h5v-1h-1V44h-1v11zm-9-7c1.105 0 2-.895 2-2s-.895-2-2-2-2 .895-2 2 .895 2 2 2zm16 0c1.105 0 2-.895 2-2s-.895-2-2-2-2 .895-2 2 .895 2 2 2zm-2-8h5v1h-5v-1zm-2.974 22.052c-1.212.606-2.58.948-4.026.948-3.523 0-6.574-2.025-8.052-4.974l.895-.448C189.156 60.2 191.868 62 195 62c1.286 0 2.502-.304 3.578-.843l.448.895z" id="Combined-Shape" fill="#7B7070"/><use id="Combined-Shape" stroke="#706565" mask="url(#mask-14)" stroke-width="4" fill="#C4C1C1" xlink:href="#path-13"/><g id="Group-28" transform="translate(109 76)"><use id="Combined-Shape" stroke="#706565" mask="url(#mask-16)" stroke-width="4" fill="#EFE8E8" xlink:href="#path-15"/><path d="M168.678 88.877C170.768 85.357 174.608 83 179 83c6.627 0 12 5.373 12 12s-5.373 12-12 12c-6.265 0-11.41-4.802-11.953-10.926l2.285 1.49c1.132 4.28 5.032 7.436 9.668 7.436 5.523 0 10-4.477 10-10s-4.477-10-10-10c-3.69 0-6.912 1.998-8.645 4.97l-1.677-1.093z" id="Combined-Shape" fill="#7B7070"/><use id="Rectangle-92" stroke="#706565" mask="url(#mask-18)" stroke-width="4" fill="#EFE8E8" xlink:href="#path-17"/><path d="M23.054 26H40.8L29.6 42H9.5l8.7-11.6c1.16-1.548 2.9-3.09 4.854-4.4z" id="Combined-Shape" fill-opacity=".3" fill="#000"/><use id="Oval-12" stroke="#706565" mask="url(#mask-20)" stroke-width="4" fill="#EFE8E8" xlink:href="#path-19"/><use id="Combined-Shape" stroke="#706565" mask="url(#mask-22)" stroke-width="4" fill="#DFD9D9" xlink:href="#path-21"/><path id="Rectangle-89-Copy" fill="#7B7070" d="M103 18h2l-15 90h-2z"/></g><use id="Combined-Shape" stroke="#706565" mask="url(#mask-24)" stroke-width="4" fill="#C4C1C1" xlink:href="#path-23"/><path d="M144 325c0-11.046-8.954-20-20-20-5.523 0-10.523 2.24-14.142 5.858l1.414 1.414C114.53 309.015 119.03 307 124 307c9.94 0 18 8.06 18 18h2zm-37.892-8.946c-1.35 2.692-2.108 5.73-2.108 8.946h2c0-2.894.683-5.63 1.897-8.052l-1.79-.894z" id="Combined-Shape-Copy-74" fill="#7B7070"/><path id="Rectangle-118-Copy" fill="#7B7070" d="M100 322h43v1h-43z"/><path d="M196.284 111.37c-.2.045-3.45.85-3.45.85l-2.66-3.647c-.074-.106-.136-.21.05-.236.187-.025 3.208-.57 3.345-.602.135-.03.253-.068.42.16.168.23 2.468 3.14 2.555 3.253.086.11-.062.18-.26.223m-.57 6.288c.083.128.164.21-.092.302-.255.093-8.608 2.912-8.77 2.982-.163.07-.29.092-.5-.21-.208-.3-2.926-5.004-2.926-5.004l8.855-2.305c.26-.082.32-.052.43.105.148.214 2.923 4.002 3.004 4.13m-14.34-2.688c-.11.026-5.196 1.24-5.468 1.303-.27.062-.27.03-.302-.062-.03-.092-6.048-12.5-6.13-12.654-.085-.155-.08-.278 0-.278.078 0 4.802-.422 4.97-.43.167-.01.15.025.21.13 0 0 6.665 11.504 6.78 11.705.117.202.172.23-.06.287m16.51-3.376c-.2-.223-2.946-3.66-3.43-4.244-.484-.583-.72-.478-1.017-.434-.3.043-3.774.627-4.177.695-.404.07-.658.23-.41.578l3.008 4.26-9.08 2.176-7.223-12.075c-.287-.427-.347-.576-1-.546-.656.03-5.667.446-6.024.476-.357.03-.75.188-.392 1.03.358.844 6.05 13.108 6.208 13.465.16.357.57.936 1.537.704.99-.24 4.42-1.134 6.295-1.625.99 1.794 3.01 5.432 3.385 5.954.498.695.842.58 1.608.348.597-.18 9.355-3.33 9.75-3.493.394-.163.638-.28.37-.673-.195-.29-2.505-3.385-3.716-5.005.83-.22 3.776-1.005 4.09-1.09.367-.1.416-.28.218-.503" id="Page-1" fill="#7B7070"/><g id="Group-27" transform="translate(0 131)"><use id="Rectangle-86-Copy" stroke="#706565" mask="url(#mask-26)" stroke-width="4" fill="#B8B3B3" xlink:href="#path-25"/><use id="Rectangle-86-Copy-2" stroke="#706565" mask="url(#mask-28)" stroke-width="4" fill="#B8B3B3" xlink:href="#path-27"/><use id="Rectangle-86-Copy-3" stroke="#706565" mask="url(#mask-30)" stroke-width="4" fill="#B8B3B3" xlink:href="#path-29"/><use id="Rectangle-86" stroke="#706565" mask="url(#mask-32)" stroke-width="4" fill="#B8B3B3" xlink:href="#path-31"/><path id="Rectangle-86-Copy-7" fill="#7B7070" d="M81 39h160v1H81z"/><path id="Rectangle-86-Copy-8" fill="#7B7070" d="M107 33h44v1h-44z"/><path id="Rectangle-86-Copy-9" fill="#7B7070" d="M171 33h44v1h-44z"/><use id="Rectangle-86-Copy-4" stroke="#706565" mask="url(#mask-34)" stroke-width="4" fill="#EFE8E8" xlink:href="#path-33"/><use id="Rectangle-86-Copy-6" stroke="#706565" mask="url(#mask-36)" stroke-width="4" fill="#EFE8E8" xlink:href="#path-35"/><use id="Rectangle-86-Copy-5" stroke="#706565" mask="url(#mask-38)" stroke-width="4" fill="#EFE8E8" xlink:href="#path-37"/><path id="Rectangle-87" fill="#7B7070" d="M86 46h10v2H86z"/><path id="Rectangle-87-Copy" fill="#7B7070" d="M117 46h10v2h-10z"/><path id="Rectangle-87-Copy-2" fill="#7B7070" d="M226 46h10v2h-10z"/><path id="Rectangle-87-Copy-3" fill="#7B7070" d="M196 46h10v2h-10z"/><path id="Rectangle-88" fill="#7B7070" d="M0 194h460v2H0z"/><path id="Rectangle-88-Copy" fill="#7B7070" d="M30 200h400v2H30z"/><g id="Group-11" transform="translate(20 48)"><use id="Rectangle-84" stroke="#706565" mask="url(#mask-40)" stroke-width="4" fill="#C4C1C1" xlink:href="#path-39"/><use id="Rectangle-84-Copy" stroke="#706565" mask="url(#mask-42)" stroke-width="4" fill="#C4C1C1" xlink:href="#path-41"/><use id="Rectangle-85" stroke="#706565" mask="url(#mask-44)" stroke-width="4" fill="#C4C1C1" xlink:href="#path-43"/><use id="Rectangle-85-Copy" stroke="#706565" mask="url(#mask-46)" stroke-width="4" fill="#C4C1C1" xlink:href="#path-45"/><use id="Rectangle-85-Copy-2" stroke="#706565" mask="url(#mask-48)" stroke-width="4" fill="#C4C1C1" xlink:href="#path-47"/><use id="Rectangle-85-Copy-3" stroke="#706565" mask="url(#mask-50)" stroke-width="4" fill="#C4C1C1" xlink:href="#path-49"/><path id="Rectangle-85-Copy-7" fill="#7B7070" d="M97 14h1v134h-1z"/><path id="Rectangle-85-Copy-6" fill="#7B7070" d="M13 14h1v134h-1z"/><path id="Rectangle-85-Copy-5" fill="#7B7070" d="M403 14h1v134h-1z"/><path id="Rectangle-85-Copy-4" fill="#7B7070" d="M319 14h1v134h-1z"/><path id="Rectangle-5" fill-opacity=".3" fill="#000" d="M8 14h14v34L8 34z"/><path id="Rectangle-5-Copy" fill-opacity=".3" fill="#000" d="M92 14h14v34L92 34z"/><path id="Rectangle-5-Copy-2" fill-opacity=".3" fill="#000" d="M314 14h14v34l-14-14z"/><path id="Rectangle-5-Copy-8" fill-opacity=".3" fill="#000" d="M398 14h14v34l-14-14z"/></g></g><path d="M272 325c0-11.046-8.954-20-20-20-5.523 0-10.523 2.24-14.142 5.858l1.414 1.414C242.53 309.015 247.03 307 252 307c9.94 0 18 8.06 18 18h2zm-37.892-8.946c-1.35 2.692-2.108 5.73-2.108 8.946h2c0-2.894.683-5.63 1.897-8.052l-1.79-.894zM213 54c0 9.94-8.06 18-18 18-7.047 0-13.148-4.05-16.103-9.948l1.79-.895C183.312 66.4 188.736 70 195 70c8.837 0 16-7.163 16-16h2z" id="Combined-Shape" fill="#7B7070"/><use id="Oval-18" stroke="#706565" mask="url(#mask-52)" stroke-width="4" fill="#B8B3B3" xlink:href="#path-51"/><use id="Combined-Shape" stroke="#706565" mask="url(#mask-54)" stroke-width="4" fill="#B8B3B3" xlink:href="#path-53"/><use id="Combined-Shape" stroke="#706565" mask="url(#mask-56)" stroke-width="2" fill="#B8B3B3" xlink:href="#path-55"/><use id="Oval-18-Copy-2" stroke="#706565" mask="url(#mask-58)" stroke-width="4" fill="#B8B3B3" xlink:href="#path-57"/><path id="Rectangle-108" fill="#7B7070" d="M187 15h20v1h-20z"/><path d="M207 26h-20v1h20c3.314 0 6-2.686 6-6h-1c0 2.76-2.24 5-5 5z" id="Combined-Shape" fill="#7B7070"/><path id="Rectangle-109" fill="#7B7070" d="M118 135h8v1h-8z"/><path id="Rectangle-109-Copy" fill="#7B7070" d="M238 139h8v1h-8z"/><path id="Rectangle-111" fill="#7B7070" d="M151 193h1v16h-1z"/><path id="Rectangle-114" fill="#7B7070" d="M234 255h1v20h-1z"/><circle id="Oval-21" fill-opacity=".2" fill="#000" cx="353" cy="159" r="7"/><path id="Rectangle-116" fill="#7B7070" d="M230 307h14l-2 2h-12z"/><path id="Rectangle-116-Copy" fill="#7B7070" d="M106 307h7v2h-7z"/><path d="M252 309c-4.418 0-8.418 1.79-11.314 4.686l.707.707C244.108 311.68 247.858 310 252 310v-1z" id="Combined-Shape" fill="#7B7070"/><path d="M112 297.5l-14 21v6.5h14v-27.5z" id="Combined-Shape" fill-opacity=".3" fill="#000"/><path id="Rectangle-118" fill="#7B7070" d="M230 322h41v1h-41z"/><path id="Rectangle-9" fill-opacity=".2" fill="#000" d="M309 169h76l-5 10h-76z"/><path d="M228.247 325L230 254l-55.482-53.866-1.4 46.875c-.065 2.203-1.114 5.484-2.34 7.322l-35.915 53.873C140.363 311.77 144 317.96 144 325h-18v-48.5l23-34.5-5.07-49H205l46.175 46.175c1.56 1.56 2.825 4.616 2.825 6.82V305.1c10.107 1.002 18 9.53 18 19.9h-43.753zM224.064 123h18l1.702 4h-18z" id="Combined-Shape" fill-opacity=".3" fill="#000"/><g id="Group-8" transform="translate(44 139)"><use id="Rectangle-20" stroke="#706565" mask="url(#mask-60)" stroke-width="4" fill="#C4C1C1" xlink:href="#path-59"/><path id="Rectangle-26" fill="#7B7070" d="M6 3h2v1H6z"/><path id="Rectangle-27-Copy" fill="#7B7070" d="M31 21h5v1h-5z"/></g><g id="Group-8-Copy" transform="translate(45 139)"><use id="Rectangle-20" stroke="#706565" mask="url(#mask-62)" stroke-width="4" fill="#C4C1C1" xlink:href="#path-61"/><path id="Rectangle-26" fill="#7B7070" d="M35 3h2v1h-2z"/><path id="Rectangle-27" fill="#7B7070" d="M0 21h5v1H0z"/><path id="Rectangle-27-Copy-3" fill="#7B7070" d="M30 21h5v1h-5z"/></g><g id="Group-8-Copy-4" transform="translate(414 139)"><use id="Rectangle-20" stroke="#706565" mask="url(#mask-64)" stroke-width="4" fill="#C4C1C1" xlink:href="#path-63"/><path id="Rectangle-26" fill="#7B7070" d="M6 3h2v1H6z"/><path id="Rectangle-27-Copy-2" fill="#7B7070" d="M1 21h5v1H1z"/></g><path id="Rectangle-28" fill="#7B7070" d="M166 49h2v119h-2z"/></g></g></g></svg>