<svg width="460" height="333" viewBox="0 0 460 333" xmlns="http://www.w3.org/2000/svg" xmlns:xlink="http://www.w3.org/1999/xlink"><defs><path id="path-1" d="M0 0h160v14H0z"/><mask id="mask-2" x="0" y="0" width="160" height="14" fill="#fff"><use xlink:href="#path-1"/></mask><path id="path-3" d="M0 0h50v14H0z"/><mask id="mask-4" x="0" y="0" width="50" height="14" fill="#fff"><use xlink:href="#path-3"/></mask><path id="path-5" d="M42 12h14v116H42z"/><mask id="mask-6" x="0" y="0" width="14" height="116" fill="#fff"><use xlink:href="#path-5"/></mask><path id="path-7" d="M8 12h14v116H8z"/><mask id="mask-8" x="0" y="0" width="14" height="116" fill="#fff"><use xlink:href="#path-7"/></mask><path id="path-9" d="M140 12h14v116h-14z"/><mask id="mask-10" x="0" y="0" width="14" height="116" fill="#fff"><use xlink:href="#path-9"/></mask><path id="path-11" d="M106 12h14v116h-14z"/><mask id="mask-12" x="0" y="0" width="14" height="116" fill="#fff"><use xlink:href="#path-11"/></mask><path d="M79 106l28.59-28.59c.78-.78 2.305-1.41 3.407-1.41H135l-39.17 39.17c-1.563 1.563-4.617 2.83-6.836 2.83H43l12-12h24z" id="path-13"/><mask id="mask-14" x="0" y="0" width="92" height="42" fill="#fff"><use xlink:href="#path-13"/></mask><path d="M117.25 115.243L119 124l-8 50h68l-4-50 6-50h-72l4.903 24.517c-.585 1.72-.903 3.565-.903 5.483 0 4.31 1.604 8.247 4.25 11.243z" id="path-15"/><mask id="mask-16" x="0" y="0" width="72" height="100" fill="#fff"><use xlink:href="#path-15"/></mask><path d="M128 135l45-2.857V124l5.76-48H183c4.418 0 8 3.578 8 8.01V141c0 4.418-3.59 8-7.995 8h-76.838c-.11-.65-.167-1.32-.167-2 0-6.627 5.373-12 12-12h10z" id="path-17"/><mask id="mask-18" x="0" y="0" width="85" height="73" fill="#fff"><use xlink:href="#path-17"/></mask><path id="path-19" d="M142 86l15-11h6l-10 22z"/><mask id="mask-20" x="0" y="0" width="21" height="22" fill="#fff"><use xlink:href="#path-19"/></mask><path id="path-21" d="M148 86l-15-11h-6l10 22z"/><mask id="mask-22" x="0" y="0" width="21" height="22" fill="#fff"><use xlink:href="#path-21"/></mask><circle id="path-23" cx="163" cy="47" r="10"/><mask id="mask-24" x="0" y="0" width="20" height="20" fill="#fff"><use xlink:href="#path-23"/></mask><path id="path-25" d="M132 20h26v56l-13 13-13-13z"/><mask id="mask-26" x="0" y="0" width="26" height="69" fill="#fff"><use xlink:href="#path-25"/></mask><path d="M134.87 40.696C137.953 42.644 140 46.083 140 50c0 6.075-4.925 11-11 11s-11-4.925-11-11c0-.577.044-1.143.13-1.696C115.047 46.356 113 42.917 113 39c0-6.075 4.925-11 11-11s11 4.925 11 11c0 .577-.044 1.143-.13 1.696z" id="path-27"/><mask id="mask-28" x="0" y="0" width="27" height="33" fill="#fff"><use xlink:href="#path-27"/></mask><path d="M124 15h42v30c0 8.837-6.472 19.082-14.442 22.877l-1.136.54c-2.995 1.427-7.85 1.426-10.844 0l-1.136-.54C130.466 64.08 124 53.837 124 45.007V15z" id="path-29"/><mask id="mask-30" x="0" y="0" width="42" height="54.487" fill="#fff"><use xlink:href="#path-29"/></mask><path d="M122 24c.034-13.26 10.766-24 24-24s23.966 10.74 24 24v21.01c0 1.65-1.347 2.99-3 2.99h-3V29.282l-2.737-8.23-17.67 6.797c-3.088 1.187-8.278 2.15-11.59 2.15H122v-6z" id="path-31"/><mask id="mask-32" x="0" y="0" width="48" height="48" fill="#fff"><use xlink:href="#path-31"/></mask><circle id="path-33" cx="43" cy="108" r="12"/><mask id="mask-34" x="0" y="0" width="24" height="24" fill="#fff"><use xlink:href="#path-33"/></mask><path d="M151.5 56.467c-1.233 1.992-3.44 3.318-5.954 3.318-2.515 0-4.72-1.326-5.954-3.318l.005.002c.532.176 1.374.174 1.898 0l1.102-.368c.532-.178 1.35-.116 1.844.13l.212.106c.49.245 1.295.247 1.79 0l.21-.105c.49-.245 1.32-.306 1.843-.13l1.102.366c.532.176 1.374.174 1.898 0l.006-.003z" id="path-35"/><mask id="mask-36" x="0" y="0" width="11.909" height="3.785" fill="#fff"><use xlink:href="#path-35"/></mask><path id="path-37" d="M10 0h80v60H10z"/><mask id="mask-38" x="0" y="0" width="80" height="60" fill="#fff"><use xlink:href="#path-37"/></mask><path id="path-39" d="M13 3h74v54H13z"/><mask id="mask-40" x="0" y="0" width="74" height="54" fill="#fff"><use xlink:href="#path-39"/></mask><path id="path-41" d="M16 8h68v46H16z"/><mask id="mask-42" x="0" y="0" width="68" height="46" fill="#fff"><use xlink:href="#path-41"/></mask><path id="path-43" d="M0 56h100v8H0z"/><mask id="mask-44" x="0" y="0" width="100" height="8" fill="#fff"><use xlink:href="#path-43"/></mask><path id="path-45" d="M40 57h20v3H40z"/><mask id="mask-46" x="0" y="0" width="20" height="3" fill="#fff"><use xlink:href="#path-45"/></mask><path d="M193.208 309.063L188 270l-17 6 8 34.667V323h44v-4c0-2.21-1.788-4-4.01-4H213l-19.792-5.938z" id="path-47"/><mask id="mask-48" x="0" y="0" width="52" height="53" fill="#fff"><use xlink:href="#path-47"/></mask><path d="M145 312v-36h-18l3.99 33.914L111 319v4h34v-11z" id="path-49"/><mask id="mask-50" x="0" y="0" width="34" height="47" fill="#fff"><use xlink:href="#path-49"/></mask><path d="M169.982 285H190l-15-113h-60l-.825 4.125c-.65 3.248-.864 8.545-.48 11.84L125 285h20v-92h4l20.982 92z" id="path-51"/><mask id="mask-52" x="0" y="0" width="76.496" height="113" fill="#fff"><use xlink:href="#path-51"/></mask><path d="M256 319c0-2.21 1.79-4 4-4h16c2.21 0 4 1.79 4 4v4h-24v-4z" id="path-53"/><mask id="mask-54" x="0" y="0" width="24" height="8" fill="#fff"><use xlink:href="#path-53"/></mask><path id="path-55" d="M254 321h40v6h-40z"/><mask id="mask-56" x="0" y="0" width="40" height="6" fill="#fff"><use xlink:href="#path-55"/></mask><path id="path-57" d="M324 321h48v6h-48z"/><mask id="mask-58" x="0" y="0" width="48" height="6" fill="#fff"><use xlink:href="#path-57"/></mask><path d="M126 172.992c0-1.1.634-2.626 1.41-3.402l1.884-1.884c.39-.39.706-1.15.706-1.715V163h6v2.99c0 .558.314 1.324.706 1.716l1.884 1.884c.78.78 1.41 2.308 1.41 3.402v24.01c0 2.207-1.787 3.998-3.993 3.998h-6.014c-2.205 0-3.993-1.787-3.993-4v-24.008z" id="path-59"/><mask id="mask-60" x="0" y="0" width="14" height="38" fill="#fff"><use xlink:href="#path-59"/></mask></defs><g id="Page-1" fill="none" fill-rule="evenodd"><g id="Artboard"><g id="illustration-show"><g id="Group-11" transform="translate(80 199)"><use id="Rectangle-84" stroke="#706565" mask="url(#mask-2)" stroke-width="4" fill="#C4C1C1" xlink:href="#path-1"/><use id="Rectangle-84-Copy" stroke="#706565" mask="url(#mask-4)" stroke-width="4" fill="#C4C1C1" xlink:href="#path-3"/><use id="Rectangle-85" stroke="#706565" mask="url(#mask-6)" stroke-width="4" fill="#C4C1C1" xlink:href="#path-5"/><use id="Rectangle-85-Copy" stroke="#706565" mask="url(#mask-8)" stroke-width="4" fill="#C4C1C1" xlink:href="#path-7"/><use id="Rectangle-85-Copy-2" stroke="#706565" mask="url(#mask-10)" stroke-width="4" fill="#C4C1C1" xlink:href="#path-9"/><use id="Rectangle-85-Copy-3" stroke="#706565" mask="url(#mask-12)" stroke-width="4" fill="#C4C1C1" xlink:href="#path-11"/><path id="Rectangle-85-Copy-7" fill="#7B7070" d="M47 14h1v114h-1z"/><path id="Rectangle-85-Copy-6" fill="#7B7070" d="M13 14h1v114h-1z"/><path id="Rectangle-85-Copy-5" fill="#7B7070" d="M145 14h1v114h-1z"/><path id="Rectangle-85-Copy-4" fill="#7B7070" d="M111 14h1v114h-1z"/><path id="Rectangle-5" fill-opacity=".3" fill="#000" d="M8 14h14v34L8 34z"/><path id="Rectangle-5-Copy" fill-opacity=".3" fill="#000" d="M42 14h14v34L42 34z"/><path id="Rectangle-5-Copy-2" fill-opacity=".3" fill="#000" d="M106 14h14v34l-14-14z"/><path id="Rectangle-5-Copy-8" fill-opacity=".3" fill="#000" d="M140 14h14v34l-14-14z"/></g><path id="Rectangle-88" fill="#7B7070" d="M0 325h460v2H0z"/><path id="Rectangle-88-Copy" fill="#7B7070" d="M30 331h400v2H30z"/><g id="Group-10" transform="translate(147)"><use id="Combined-Shape" stroke="#706565" mask="url(#mask-14)" stroke-width="4" fill="#EFE8E8" xlink:href="#path-13"/><use id="Combined-Shape" stroke="#706565" mask="url(#mask-16)" stroke-width="4" fill="#DFD9D9" xlink:href="#path-15"/><path d="M115 149l-.64 4h62.96l-.32-4h-62z" id="Combined-Shape" fill-opacity=".3" fill="#000"/><path d="M114.57 96.853c-1.007 2.173-1.57 4.594-1.57 7.147 0 9.053 7.077 16.453 16 16.97v-2.003c-7.818-.514-14-7.02-14-14.967 0-1.113.12-2.2.35-3.243l-.78-3.904z" id="Combined-Shape" fill="#7B7070"/><path d="M154.9 119.872c1.893.73 3.95 1.128 6.1 1.128 9.39 0 17-7.61 17-17 0-2.553-.563-4.974-1.57-7.147l-.78 3.904c.23 1.044.35 2.13.35 3.243 0 8.284-6.716 15-15 15-1.86 0-3.64-.338-5.283-.957l-.818 1.83z" id="Combined-Shape-Copy" fill="#7B7070"/><path id="Rectangle-38" fill="#7B7070" d="M144 88h2v85h-2z"/><use id="Combined-Shape" stroke="#706565" mask="url(#mask-18)" stroke-width="4" fill="#EFE8E8" xlink:href="#path-17"/><path d="M126.563 143H119c-1.105 0-2 .895-2 2s.895 2 2 2h2.236c-.55.614-1.348 1-2.236 1-1.657 0-3-1.343-3-3s1.343-3 3-3h7.535c.692-1.196 1.984-2 3.465-2 1.105 0 2.105.448 2.828 1.172l-.707.707c-.542-.544-1.292-.88-2.12-.88-1.306 0-2.417.835-2.83 2h-.607z" id="Combined-Shape" fill="#7B7070"/><path id="Rectangle-43" fill="#7B7070" d="M174 133h9v1h-9z"/><path id="Rectangle-37-Copy-3" fill-opacity=".2" fill="#000" d="M142 90l15-11h6l-10 22z"/><path id="Rectangle-37-Copy-2" fill-opacity=".2" fill="#000" d="M148 90l-15-11h-6l10 22z"/><use id="Rectangle-37" stroke="#706565" mask="url(#mask-20)" stroke-width="2" fill="#DFD9D9" xlink:href="#path-19"/><use id="Rectangle-37-Copy" stroke="#706565" mask="url(#mask-22)" stroke-width="2" fill="#DFD9D9" xlink:href="#path-21"/><use id="Oval-4" stroke="#706565" mask="url(#mask-24)" stroke-width="4" fill="#DFD9D9" xlink:href="#path-23"/><use id="Rectangle-101" stroke="#706565" mask="url(#mask-26)" stroke-width="4" fill="#EFE8E8" xlink:href="#path-25"/><path d="M158 67.132V20h-26v47.134c1.94 1.996 4.127 3.64 6.442 4.743l1.136.54c2.993 1.426 7.85 1.427 10.844 0l1.136-.54c2.314-1.102 4.502-2.748 6.442-4.745z" id="Combined-Shape" fill-opacity=".2" fill="#000"/><use id="Combined-Shape" stroke="#706565" mask="url(#mask-28)" stroke-width="4" fill="#DFD9D9" xlink:href="#path-27"/><use id="Rectangle-29" stroke="#706565" mask="url(#mask-30)" stroke-width="4" fill="#EFE8E8" xlink:href="#path-29"/><path d="M122 26c.034-13.26 10.766-24 24-24s23.966 10.74 24 24v21.01c0 1.65-1.347 2.99-3 2.99h-3V31.282l-2.737-8.23-17.67 6.797c-3.088 1.187-8.278 2.15-11.59 2.15H122v-6z" id="Combined-Shape-Copy-2" fill-opacity=".2" fill="#000"/><use id="Combined-Shape" stroke="#706565" mask="url(#mask-32)" stroke-width="4" fill="#DFD9D9" xlink:href="#path-31"/><path d="M132.5 34h4.5v1h-4v2h-1v-3h.5zm4.5 8c1.105 0 2-.895 2-2s-.895-2-2-2-2 .895-2 2 .895 2 2 2zm16 0c1.105 0 2-.895 2-2s-.895-2-2-2-2 .895-2 2 .895 2 2 2zm-2-8h5v1h-5v-1zm-8 16h5v1h-5v-1zm2-12h1v8h-1v-8z" id="Combined-Shape" fill="#7B7070"/><use id="Oval-5" stroke="#706565" mask="url(#mask-34)" stroke-width="4" fill="#EFE8E8" xlink:href="#path-33"/><path d="M49.636 118c-1.9 1.264-4.183 2-6.636 2-6.627 0-12-5.373-12-12s5.373-12 12-12 12 5.373 12 12c0 .68-.057 1.35-.166 2H81l-8 8H49.636z" id="Combined-Shape" fill-opacity=".3" fill="#000"/><use id="Oval-545-Copy-2" stroke="#706565" mask="url(#mask-36)" stroke-width="2" fill="#C4C1C1" xlink:href="#path-35"/><g id="Group-12" transform="translate(0 46)"><use id="Rectangle-30" stroke="#706565" mask="url(#mask-38)" stroke-width="4" fill="#DFD9D9" xlink:href="#path-37"/><use id="Rectangle-30-Copy" stroke="#706565" mask="url(#mask-40)" stroke-width="2" fill="#C4C1C1" xlink:href="#path-39"/><use id="Rectangle-30-Copy-2" stroke="#706565" mask="url(#mask-42)" stroke-width="2" fill="#EFE8E8" xlink:href="#path-41"/><path d="M63.284 31.37c-.2.045-3.45.85-3.45.85l-2.66-3.647c-.074-.106-.136-.21.05-.236.187-.025 3.208-.57 3.345-.602.135-.03.253-.068.42.16.168.23 2.468 3.14 2.555 3.253.086.11-.062.18-.26.223m-.57 6.288c.083.128.164.21-.092.302-.255.093-8.608 2.912-8.77 2.982-.163.07-.29.092-.5-.21-.208-.3-2.926-5.004-2.926-5.004l8.855-2.305c.26-.082.32-.052.43.105.148.214 2.923 4.002 3.004 4.13m-14.34-2.688c-.11.026-5.196 1.24-5.468 1.303-.27.062-.27.03-.302-.062-.03-.092-6.048-12.5-6.13-12.654-.085-.155-.08-.278 0-.278.078 0 4.802-.422 4.97-.43.167-.01.15.025.21.13 0 0 6.665 11.504 6.78 11.705.117.202.172.23-.06.287m16.51-3.376c-.2-.223-2.946-3.66-3.43-4.244-.484-.583-.72-.478-1.017-.434-.3.043-3.774.627-4.177.695-.404.07-.658.23-.41.578l3.008 4.26-9.08 2.176-7.223-12.075c-.287-.427-.347-.576-1-.546-.656.03-5.667.446-6.024.476-.357.03-.75.188-.392 1.03.358.844 6.05 13.108 6.208 13.465.16.357.57.936 1.537.704.99-.24 4.42-1.134 6.295-1.625.99 1.794 3.01 5.432 3.385 5.954.498.695.842.58 1.608.348.597-.18 9.355-3.33 9.75-3.493.394-.163.638-.28.37-.673-.195-.29-2.505-3.385-3.716-5.005.83-.22 3.776-1.005 4.09-1.09.367-.1.416-.28.218-.503" id="Page-1" fill="#7B7070"/><use id="Rectangle-31" stroke="#706565" mask="url(#mask-44)" stroke-width="4" fill="#DFD9D9" xlink:href="#path-43"/><use id="Rectangle-32" stroke="#706565" mask="url(#mask-46)" stroke-width="2" fill="#DFD9D9" xlink:href="#path-45"/><circle id="Oval" fill="#7B7070" cx="50" cy="6" r="1"/></g><use id="Combined-Shape" stroke="#706565" mask="url(#mask-48)" stroke-width="4" fill="#EFE8E8" xlink:href="#path-47"/><path d="M190 285l.533 4H174l-.923-4H190z" id="Combined-Shape" fill-opacity=".3" fill="#000"/><use id="Combined-Shape" stroke="#706565" mask="url(#mask-50)" stroke-width="4" fill="#EFE8E8" xlink:href="#path-49"/><path d="M145 289v-4h-16.94l.47 4H145z" id="Combined-Shape" fill-opacity=".3" fill="#000"/><use id="Combined-Shape" stroke="#706565" mask="url(#mask-52)" stroke-width="4" fill="#B8B3B3" xlink:href="#path-51"/><path d="M175.796 178l-.53-4H114.6l-.425 2.125c-.114.57-.214 1.202-.3 1.875h61.92z" id="Combined-Shape" fill-opacity=".3" fill="#000"/><path id="Rectangle-46" fill="#7B7070" d="M134 191h10v2h-10z"/></g><path d="M293 4c-5.523 0-10.523 2.24-14.142 5.858l.707.707C283.003 7.127 287.753 5 293 5V4z" id="Combined-Shape" fill="#7B7070"/><use id="Combined-Shape" stroke="#706565" mask="url(#mask-54)" stroke-width="4" fill="#EFE8E8" xlink:href="#path-53"/><use id="Rectangle-70" stroke="#706565" mask="url(#mask-56)" stroke-width="4" fill="#DFD9D9" xlink:href="#path-55"/><use id="Rectangle-70-Copy" stroke="#706565" mask="url(#mask-58)" stroke-width="4" fill="#DFD9D9" xlink:href="#path-57"/><use id="Combined-Shape" stroke="#706565" mask="url(#mask-60)" stroke-width="4" fill="#EFE8E8" xlink:href="#path-59"/><path id="Rectangle-69" fill="#7B7070" d="M127 176h7v1h-7z"/><path id="Rectangle-69-Copy" fill="#7B7070" d="M127 182h7v1h-7z"/><path id="Rectangle-71" fill="#7B7070" d="M352 321l6-6 2 2-6 6z"/></g></g></g></svg>