<svg xmlns="http://www.w3.org/2000/svg" viewBox="0 0 220 60"><g id="Page-1" fill="none" fill-rule="evenodd"><g id="partner-sentry-copy" fill="#585858"><path id="Combined-Shape" d="M26.54 27.6a5.82 5.82 0 1 0 .02 11.63 5.82 5.82 0 0 0-.02-11.64zm0-4.7a5.82 5.82 0 1 0-.02-11.65 5.82 5.82 0 0 0 .02 11.64zM6 50h10.13V11.48H6V50zm45.24-38.52L32.83 50h11.06L62.3 11.48H51.24zm21.53 0L54.37 50h11.05l13.45-27.97V50h10.14V11.48H72.77zM214 27.97v-1.53h-6.33v8.51H214V33.3h-4.8v-1.9h4.67v-1.53h-4.68v-1.9H214zm-14.17-1.53h-3.3v8.51h3.3c2.98 0 4.29-2.17 4.25-4.33-.03-2.1-1.33-4.18-4.25-4.18zm0 6.99h-1.77v-5.46h1.77c1.85 0 2.63 1.32 2.66 2.65.04 1.4-.73 2.8-2.66 2.8zm-11.93-6.99l-3.81 8.51h1.74l.73-1.65H191l.72 1.65h1.75l-3.82-8.5h-1.75zm-.7 5.34l1.58-3.64 1.58 3.64h-3.16zm-10.7-1.67l-2.67-3.67H172v8.51h1.65v-6.23l2.66 3.7h.31l2.72-3.68v6.21h1.65v-8.5h-1.83l-2.66 3.66zm-12.93-.9c0-1.47-1.07-2.81-3.08-2.83h-4.06v8.57h1.64v-2.92h1.54l2.48 2.92h1.93v-.14l-2.58-2.91c1.61-.33 2.13-1.52 2.13-2.69zm-5.5 1.42v-2.8h2.44c1.01 0 1.46.72 1.46 1.4 0 .69-.44 1.4-1.46 1.4h-2.44zm-11.76 4.32h6.32V33.3h-4.8v-1.9h4.68v-1.53h-4.68v-1.9h4.8v-1.53h-6.32v8.51zm-10.25-7.11h2.66v7.11h1.64v-7.11h2.66v-1.4h-6.96v1.4zm-6.48 1.86c-1.02-.12-1.9-.33-1.9-1.07 0-.64.58-1.14 1.77-1.14.92 0 1.72.47 2.01.95l1.28-.65c-.65-1.32-2.02-1.7-3.34-1.7-1.57.01-3.3.73-3.3 2.49 0 1.91 1.6 2.38 3.35 2.58 1.13.13 1.96.46 1.96 1.26 0 .93-.94 1.28-1.95 1.28-1.03 0-2.02-.41-2.4-1.35l-1.33.7c.63 1.55 1.97 2.09 3.7 2.09 1.9 0 3.58-.82 3.58-2.72 0-2.04-1.66-2.5-3.43-2.72zm-11.2-3.49c-2.93 0-4.37 2.26-4.37 4.5 0 2.25 1.39 4.4 4.38 4.4 2.98 0 4.33-2.2 4.36-4.4.02-2.24-1.44-4.5-4.36-4.5zm0 7.43c-2 0-2.75-1.5-2.79-2.9-.04-1.44.8-3.06 2.8-3.06 2 0 2.8 1.6 2.78 3.05-.03 1.4-.78 2.91-2.78 2.91zm-13.45 1.31h1.52v-3.17h4.3v-1.53h-4.3v-2.28h4.56v-1.53h-6.08v8.51z"/></g></g></svg>