<svg width="220" height="60" viewBox="0 0 220 60" xmlns="http://www.w3.org/2000/svg"><g id="Page-1" fill="none" fill-rule="evenodd"><g id="sponsor-larajobs" fill="#585858"><path d="M112.127 10.013c0-2.77 2.244-5.013 5.013-5.013 2.768 0 5.012 2.244 5.012 5.013 0 2.768-2.244 5.01-5.012 5.01-2.77 0-5.013-2.242-5.013-5.01zM32 55.113v-45.1h4.124v41.104h9.535v3.995H32zm27.632 0V53.5c-1.417 1.354-3.028 2.32-4.96 2.32-4.382 0-6.444-3.994-6.444-11.274 0-7.667 2.577-11.21 7.474-11.21 1.61 0 2.835.45 3.93 1.223v-5.54c0-3.16-1.095-4.51-3.286-4.51-1.482 0-2.835.964-4.768 2.96l-2.384-3.027c2.384-2.384 4.833-3.866 7.41-3.866 4.38 0 7.022 1.676 7.022 8.118V55.11h-3.994v.003zm0-16.817c-1.16-.71-1.868-1.16-3.8-1.16-2.836 0-3.545 2.77-3.545 7.28 0 4.06.71 7.603 3.157 7.603 1.29 0 2.964-.775 4.188-2.064v-11.66zm19.21-12.885c-1.095-.58-1.868-.772-3.092-.772-1.48 0-2.706.774-3.608 1.804v28.672h-3.994V21.287h3.994v1.675c1.225-1.353 2.835-2.384 4.768-2.384 1.546 0 2.32.258 3.157.645l-1.224 4.188zm13.87 29.703v-1.61c-1.416 1.352-3.027 2.32-4.96 2.32-4.38 0-6.442-3.996-6.442-11.276 0-7.667 2.577-11.21 7.473-11.21 1.61 0 2.835.45 3.93 1.223v-5.54c0-3.158-1.095-4.51-3.286-4.51-1.482 0-2.835.965-4.767 2.962l-2.384-3.028c2.384-2.384 4.832-3.866 7.41-3.866 4.38 0 7.022 1.676 7.022 8.118v26.416h-3.995zm0-16.816c-1.16-.71-1.867-1.16-3.8-1.16-2.835 0-3.544 2.77-3.544 7.28 0 4.06.71 7.603 3.157 7.603 1.29 0 2.964-.774 4.188-2.063v-11.66zM110.79 55.82c-7.474 0-10.244-5.154-10.63-12.563l8.697-1.74c.13 5.413.58 6.637 2.062 6.637 1.287 0 1.737-1.16 1.737-4.38v-26.3h9.02v25.073c0 8.956-3.414 13.273-10.888 13.273zm23.655 0c-7.087 0-10.05-5.99-10.05-17.46 0-11.145 2.32-17.782 10.307-17.782 7.28 0 10.05 6.186 10.05 17.525 0 11.532-2.704 17.718-10.307 17.718zm.13-28.026c-1.612 0-1.87 2.127-1.87 10.31 0 8.375.194 10.5 1.933 10.5 1.547 0 1.868-2.125 1.868-10.308 0-8.633-.386-10.502-1.932-10.502zM159.97 55.82c-1.74 0-3.35-.9-4.577-2.19v1.483h-8.246V11.236l8.246-3.092v14.754c1.03-1.29 2.577-2.32 4.64-2.32 5.153 0 7.086 6.186 7.086 17.396 0 12.37-2.45 17.847-7.15 17.847zm-2.966-28.025c-.644 0-1.16.323-1.61.774v19.2c.386.385.9.77 1.61.77 1.224 0 1.803-.772 1.803-10.372 0-9.47-.58-10.373-1.803-10.373zm21.202 28.027c-5.605 0-7.86-3.414-9.15-8.697l6.895-2.448c.84 3.48 1.547 4.703 2.578 4.703 1.223 0 1.803-.71 1.803-2.19 0-2.707-.772-3.93-4.122-6.12-5.412-3.545-6.83-6.767-6.83-11.147 0-5.605 3.222-9.342 9.15-9.342 5.282 0 7.473 2.77 9.02 7.86l-6.766 2.45c-.773-2.642-1.353-3.866-2.384-3.866-1.095 0-1.61.646-1.61 1.805 0 2.45 1.03 3.48 4.51 5.733 5.54 3.736 6.7 7.086 6.7 11.79 0 6.25-4.06 9.47-9.793 9.47z" id="Shape"/></g></g></svg>