<svg xmlns="http://www.w3.org/2000/svg" viewBox="0 0 220 60"><g id="Page-1" fill="none" fill-rule="evenodd"><g id="partner-sentry-copy-2" fill="#585858"><g id="Page-1" transform="translate(39 9)"><path id="Combined-Shape" d="M12.35 27.08c-1.88 0-3.4 1.9-3.4 3.77a3.4 3.4 0 0 0 6.8 0v-3.77h-3.4zm16.54-16.03a4.35 4.35 0 1 0 8.69-.01 4.35 4.35 0 0 0-8.7 0zM85 19.6l-11.33 5.14V1.63c0-.82-.66-1.48-1.48-1.48h-5.63c-.82 0-1.43.66-1.43 1.48v30.71s.1 3.02-1.55 3.02c-2.02 0-1.74-3.02-1.74-3.02v-4.9s.78-11.57-10.33-11.57c-10.82 0-10.54 9.36-10.54 11.58v4.53s.14 2.22-1.44 2.22c-1.64 0-1.55-2.12-1.55-2.12v-7.52c0-5.07-2.61-5.47-5.9-5.47h-7.65V1.63c0-.82-.66-1.48-1.48-1.48h-5.8c-.83 0-1.41.66-1.41 1.48V18.1h-3.53C5.47 18.09 0 23.95 0 30.69a12.21 12.21 0 0 0 24.44 0v-3.61h2.24s2.28.46 2.28 2.63c0 2.18-.05 13.18 10.38 13.18C50.36 42.9 49 31.07 49 29.47v-2.99s-.04-1.92 2.01-1.92c2.3 0 2.05 1.83 2.05 1.83v9.16s-.03 6.83 5.39 6.83h10.72s3.22.4 4.38-3.55c4.54 4.06 9.5 3.57 9.5 3.57h12.72c-.6-.1-1.16-.24-1.7-.4 1.01.26 2.07.4 3.16.4h19.9c4.62 0 4.54-3.23 4.54-5.85v-8.12h3.76c0 14.76 12.15 13.97 12.15 13.97h3.32c2.36 0 1.95-1.49 1.95-2.36v-4.98c0-2.18-1.25-1.83-3.87-1.83s-3.23-.52-4.02-1.4c-.79-.87-.7-3.4-.7-3.4H141c2.19 0 1.84-1.3 1.84-2.1v-5.67c0-1.75-1.75-1.57-2.54-1.57h-6V1.49c0-.82-.67-1.49-1.49-1.49H127c-.82 0-1.48.67-1.48 1.48v17.6h-7.35c-5.42 0-5.25 3.94-5.25 3.94v7.44c0 2.65-2.18 2.68-2.18 2.68h-1.6a12.21 12.21 0 0 0-11.9-14.97h-3.46V1.47C93.78.66 93.11 0 92.3 0h-5.8c-.81 0-1.48.66-1.48 1.48v18.13zm0 9.11l-5.77 2.78s.2 2.6 6.22 2.15c-.3-1.04-.45-2.14-.45-3.28v-1.65zm28.18-17.75a4.2 4.2 0 1 0 8.38 0 4.2 4.2 0 0 0-8.38 0zm-19.54 16.1v3.4a3.4 3.4 0 1 0 3.4-3.4h-3.4z"/></g></g></g></svg>