<svg xmlns="http://www.w3.org/2000/svg" viewBox="0 0 220 60"><g fill="none" fill-rule="evenodd" transform="translate(40 18)"><path fill="#1A1918" d="M0 .6h4.55v3.65h.1C5.83 1.75 8.86 0 12.56 0c4.66 0 8.7 2.75 8.7 9.06v15.27H16.7V10.3c0-4.45-2.58-6.1-5.47-6.1-3.8 0-6.68 2.4-6.68 7.9v12.22H0V.6zm28.27 13.52c0 4.15 3.9 6.9 8.1 6.9 2.78 0 4.8-1.4 6.57-3.55l3.45 2.6c-2.53 3.25-6.03 4.86-10.63 4.86-7.6 0-12.35-5.4-12.35-12.47C23.41 5.36 28.62 0 35.81 0 44.26 0 47.5 6.4 47.5 12.51v1.6H28.27zm14.37-3.6c-.1-3.96-2.33-6.92-6.93-6.92-4.5 0-7.44 3.76-7.44 6.91h14.37zm13.6 1.14L47.73.6h5.86l5.82 8.41 5.72-8.4h5.52l-8.2 11.05 9.71 12.67H66.3l-7.08-9.96-7.09 9.96h-5.61l9.71-12.67zM77.63.6v3.7c.56-1.4 3.49-4.3 7.8-4.3 3.53 0 5.96 1.5 7.48 4.4a8.69 8.69 0 0 1 7.6-4.4c7.38 0 9.1 5.2 9.1 10.51v13.82h-4.55V11.1c0-3.6-.76-6.9-5.16-6.9s-6.13 2.95-6.13 7.15v12.97h-4.55V11.9c0-4.5-.66-7.7-5.06-7.7-3.3 0-6.23 2.45-6.23 7.8v12.32H73.4V.6h4.25zm47.82 3.6a8.37 8.37 0 0 0-7.67 4.98l-3.93-1.52a12.59 12.59 0 0 1 11.6-7.62c6.44 0 11.74 4.78 12.49 10.95h1.96l-3.92 3.8-3.91-3.8h1.6a8.34 8.34 0 0 0-8.22-6.78zm0 16.56a8.37 8.37 0 0 0 7.66-4.94l3.93 1.52a12.58 12.58 0 0 1-11.59 7.59 12.53 12.53 0 0 1-12.45-10.73h-1.78l3.92-3.8 3.9 3.8h-1.77a8.34 8.34 0 0 0 8.18 6.56z"/><path fill="#0091B5" d="M128.49 12.2c0 1.6-1.3 2.89-2.92 2.89a2.9 2.9 0 0 1-2.93-2.9c0-1.6 1.31-2.89 2.93-2.89a2.9 2.9 0 0 1 2.92 2.9"/></g></svg>