<svg xmlns="http://www.w3.org/2000/svg" width="220" height="60" viewBox="0 0 220 60"><path fill="#454545" fill-rule="evenodd" d="M34.53 13.93h.17c5.85.03 10.8 3.03 13.5 7.52l-6.4 4.06a7.67 7.67 0 0 0-7.15-4.43c-4.84 0-8.23 3.8-8.23 8.52 0 4.64 3.3 8.44 8.15 8.44 3.64 0 6.14-2.08 7.4-4.97l6.73 3.6a15.45 15.45 0 0 1-14.09 8.6c-9.4 0-15.63-6.98-15.63-15.67 0-8.87 6.6-15.63 15.55-15.67zm33.2.4h8.7l-9.06 12.2L77.1 44.9h-8.15l-6.42-11.84-3.35 4.51v7.33h-6.87v-9.78l15.41-20.8zm-15.42 0h6.8l-6.8 9.2v-9.2zm48.36 9.16c1.85 0 3.23.61 4.41 1.69.09.09.1.23.02.32l-.3.31c-.1.11-.2.1-.3-.02a5.68 5.68 0 0 0-9.5 4.26c0 3.12 2.49 5.7 5.67 5.7 1.56 0 2.74-.62 3.83-1.53.1-.09.22-.09.29-.03l.3.3c.1.08.1.22 0 .32a6.28 6.28 0 0 1-4.42 1.76 6.52 6.52 0 0 1-6.58-6.52 6.56 6.56 0 0 1 6.58-6.56zm13 0a6.53 6.53 0 0 1 6.57 6.56 6.5 6.5 0 0 1-6.56 6.52 6.49 6.49 0 0 1-6.54-6.52c0-3.64 2.9-6.56 6.54-6.56zm0 12.28a5.73 5.73 0 1 0 0-11.48 5.75 5.75 0 0 0 0 11.48zm9.51-12.05c0-.14.13-.23.28-.23h.3l8.72 11.35h.02V23.9c0-.12.11-.23.24-.23h.36c.13 0 .24.1.24.23v12.43c0 .17-.15.24-.3.24h-.23c-.01 0-.16-.06-8.8-11.47v11.05c0 .13-.12.24-.24.24h-.35a.24.24 0 0 1-.24-.24V23.72zm15.94.73h-3.47c-.18 0-.24-.11-.24-.27v-.28c0-.14.11-.23.24-.23h7.81c.15 0 .24.1.24.23v.31c0 .13-.1.24-.24.24h-3.49v11.7c0 .13-.1.24-.29.24h-.32a.24.24 0 0 1-.24-.24v-11.7zm6.65-.55c0-.12.11-.23.24-.23h7.28c.13 0 .24.1.24.23v.31c0 .13-.1.24-.24.24h-6.64v5.01h5.75c.13 0 .24.11.24.24v.3c0 .14-.1.25-.24.25h-5.75v5.37h6.64c.13 0 .24.11.24.24v.29c0 .13-.1.24-.24.24h-7.28a.24.24 0 0 1-.24-.24V23.9zm10.1 10.8l.17-.22c.13-.15.26-.2.4-.07.18.16 1.53 1.4 3.36 1.4 1.65 0 3.05-1.11 3.05-2.44 0-1.62-1.32-2.34-3.52-3.09-2.1-.74-3.5-1.49-3.5-3.58 0-1.36 1.08-3.21 3.92-3.21 1.8 0 3.12.92 3.12.92.07.06.2.19.07.39l-.14.23c-.11.15-.22.2-.4.1-.06-.04-1.27-.86-2.67-.86-2.24 0-3.07 1.38-3.07 2.41 0 1.55 1.18 2.22 3.01 2.82 2.5.85 4.07 1.73 4.07 3.83 0 1.82-1.87 3.24-3.96 3.24a5.92 5.92 0 0 1-3.85-1.5c-.1-.08-.2-.17-.05-.37zm12.56-10.25h-3.47c-.18 0-.23-.11-.23-.27v-.28c0-.14.1-.23.23-.23h7.82c.14 0 .23.1.23.23v.31c0 .13-.09.24-.23.24h-3.5v11.7c0 .13-.1.24-.28.24h-.33a.24.24 0 0 1-.24-.24v-11.7zm10.6-.5c0-.17.1-.28.27-.28h.33c.16 0 .27.1.27.27v5.61l6.18-5.75c.14-.13.2-.13.36-.13h.51c.2 0 .22.2.11.3l-6.32 5.88 6.52 6.23c.1.09.07.3-.16.3h-.58c-.17 0-.26-.03-.4-.18l-6.22-6.03v5.98c0 .18-.13.24-.27.24h-.36c-.15 0-.24-.1-.24-.24v-12.2zm10.72-.05c0-.12.11-.23.24-.23h.4c.12 0 .23.1.23.23v12.25c0 .15-.12.24-.25.24H190a.24.24 0 0 1-.24-.24V23.9zm6.65.55h-3.47c-.18 0-.23-.11-.23-.27v-.28c0-.14.1-.23.23-.23h7.82c.14 0 .23.1.23.23v.31c0 .13-.09.24-.23.24h-3.5v11.7c0 .13-.1.24-.28.24h-.33a.24.24 0 0 1-.24-.24v-11.7z"/></svg>