<svg xmlns="http://www.w3.org/2000/svg" viewBox="0 0 220 60"><g fill="#454545" fill-rule="evenodd" transform="translate(40 7)"><path d="M74.97 18.67c-2.82 0-3.68-2.45-3.68-4.87 0-2.45.86-4.9 3.68-4.9 2.86 0 3.71 2.45 3.71 4.9 0 2.42-.85 4.87-3.7 4.87zm0-12.93c-4.77 0-7.86 3.18-7.86 8.06 0 4.84 3.1 8.03 7.86 8.03 4.8 0 7.9-3.2 7.9-8.03 0-4.88-3.1-8.06-7.9-8.06zM62.52 21.4h4.18V6.15h-4.18V21.4zM66.7.33h-4.18V3.8h4.18V.33zM48.06 16.45c.18 4.05 3.63 5.38 7.16 5.38 3.47 0 6.95-1.3 6.95-5.32 0-2.83-2.39-3.72-4.83-4.28-2.38-.56-4.74-.77-4.74-2.27 0-1.24 1.38-1.42 2.33-1.42 1.5 0 2.73.44 2.85 2.07h3.98c-.33-3.75-3.39-4.87-6.72-4.87-3.27 0-6.62 1-6.62 4.9 0 2.68 2.41 3.54 4.83 4.07 3 .65 4.74 1.1 4.74 2.36 0 1.48-1.53 1.95-2.74 1.95-1.65 0-3.18-.74-3.21-2.57h-3.98zm-14.61 4.96h4.18v-8c0-3.1.97-4.37 3.24-4.37 1.94 0 2.68 1.24 2.68 3.75v8.62h4.18v-9.39c0-3.78-1.12-6.28-5.57-6.28-1.76 0-3.59.82-4.65 2.54h-.09V6.15h-3.97V21.4zm-11.38-9.27c.06-1.18.83-3.25 3.48-3.25 2.03 0 2.94 1.13 3.33 3.25h-6.8zm10.99 2.66c.3-4.7-2.21-9.06-7.4-9.06-4.62 0-7.77 3.48-7.77 8.06 0 4.72 2.98 8.03 7.78 8.03 3.44 0 5.94-1.54 7.12-5.14h-3.68c-.26.94-1.62 1.98-3.3 1.98-2.32 0-3.62-1.21-3.74-3.87h10.99zm-28.53-.33c0 2.79 2.18 3.87 4.65 3.87 1.62 0 4.1-.47 4.1-2.6 0-2.26-3.16-2.64-6.25-3.46C3.91 11.46.76 10.26.76 6.33.76 2.05 4.82 0 8.62 0c4.39 0 8.42 1.9 8.42 6.74h-4.47c-.15-2.52-1.95-3.17-4.15-3.17-1.48 0-3.18.62-3.18 2.38 0 1.61 1 1.81 6.27 3.16 1.53.38 6.24 1.35 6.24 6.1 0 3.83-3.03 6.7-8.75 6.7-4.65 0-9-2.28-8.95-7.44h4.48z"/><path fill-rule="nonzero" d="M125.87 16.96l4-.6c.17.77.52 1.36 1.04 1.76.52.4 1.25.6 2.18.6 1.03 0 1.81-.18 2.33-.56.35-.27.53-.62.53-1.07 0-.3-.1-.55-.29-.75-.2-.2-.64-.37-1.33-.53-3.22-.71-5.26-1.36-6.12-1.95a3.9 3.9 0 0 1-1.79-3.4c0-1.31.52-2.41 1.55-3.3 1.03-.9 2.63-1.34 4.8-1.34 2.06 0 3.6.34 4.6 1.01 1 .67 1.69 1.67 2.07 2.99l-3.76.7a2.34 2.34 0 0 0-.92-1.36 3.34 3.34 0 0 0-1.92-.47c-1.05 0-1.8.15-2.26.45-.3.2-.45.48-.45.8 0 .3.13.53.4.73.35.27 1.6.64 3.72 1.13 2.12.48 3.6 1.07 4.45 1.78a3.7 3.7 0 0 1 1.25 2.97c0 1.39-.58 2.58-1.73 3.57-1.16 1-2.87 1.5-5.13 1.5-2.05 0-3.68-.42-4.87-1.25a5.77 5.77 0 0 1-2.35-3.4zm-10.54-3.57c0 1.57.25 2.73.74 3.47.69 1.07 1.6 1.6 2.75 1.6.88 0 1.63-.38 2.25-1.13.62-.76.93-1.95.93-3.57 0-1.73-.31-2.97-.94-3.73a2.96 2.96 0 0 0-2.4-1.15 3 3 0 0 0-2.38 1.12c-.63.74-.95 1.87-.95 3.4zm-3.96 7.89V.4h3.99v7.52a5.64 5.64 0 0 1 4.37-2.11c1.84 0 3.35.67 4.56 2 1.2 1.33 1.8 3.25 1.8 5.74 0 2.58-.61 4.57-1.84 5.97a5.73 5.73 0 0 1-4.46 2.09 5.5 5.5 0 0 1-2.55-.65 6.1 6.1 0 0 1-2.17-1.91v2.22h-3.7zm-5.51-7.26c-.51.17-1.32.37-2.43.61a7.3 7.3 0 0 0-2.17.7c-.52.37-.78.84-.78 1.4 0 .57.2 1.05.62 1.46.42.4.95.61 1.6.61.71 0 1.4-.24 2.05-.71.48-.36.8-.8.95-1.33.1-.34.16-.99.16-1.95v-.8zm-5.34-3.25l-3.62-.65A5.65 5.65 0 0 1 99 6.87c1-.7 2.47-1.05 4.43-1.05 1.78 0 3.1.21 3.97.63.87.43 1.49.96 1.84 1.61.36.65.53 1.84.53 3.58l-.04 4.67c0 1.33.07 2.3.2 2.94.12.63.36 1.3.71 2.03h-3.95a14.7 14.7 0 0 1-.52-1.65 7.18 7.18 0 0 1-2.19 1.49c-.77.33-1.6.5-2.48.5a5.13 5.13 0 0 1-3.67-1.27 4.21 4.21 0 0 1-1.34-3.2c0-.85.2-1.62.6-2.29a4 4 0 0 1 1.72-1.53c.73-.36 1.79-.67 3.17-.93a21.6 21.6 0 0 0 3.88-.99v-.4c0-.76-.2-1.31-.57-1.64-.38-.33-1.1-.49-2.14-.49-.71 0-1.27.14-1.67.42-.4.28-.71.77-.96 1.47zm-16.86 10.5V.59h4.2v17.18h8.3v3.52h-12.5z"/><path d="M53.57 36.71v-1.26h1.12v-.53c0-.6.19-1.1.56-1.49.38-.39.95-.58 1.72-.58a6.43 6.43 0 0 1 .99.05v1.4a5.74 5.74 0 0 0-.69-.04c-.25 0-.43.06-.54.18-.11.12-.17.32-.17.6v.41h1.3v1.26h-1.3v5.58H54.7v-5.58h-1.12zm-4.95 2.97c.05.26.14.5.27.7.13.2.3.37.5.5.22.12.48.18.8.18.32 0 .58-.06.8-.18.21-.13.38-.3.51-.5s.22-.44.27-.7a4.02 4.02 0 0 0 0-1.6c-.05-.27-.14-.5-.27-.7a1.5 1.5 0 0 0-.51-.5c-.22-.13-.48-.2-.8-.2-.32 0-.58.07-.8.2-.2.12-.37.29-.5.5-.13.2-.22.43-.27.7a4.12 4.12 0 0 0 0 1.6zm-1.7-2.29a3.2 3.2 0 0 1 1.82-1.86 3.9 3.9 0 0 1 1.45-.26c.54 0 1.02.08 1.46.26a3.19 3.19 0 0 1 1.82 1.86c.17.45.25.94.25 1.49s-.08 1.04-.25 1.48a3.1 3.1 0 0 1-1.83 1.85c-.43.17-.91.25-1.45.25-.54 0-1.02-.08-1.45-.25a3.12 3.12 0 0 1-1.82-1.85 4.16 4.16 0 0 1-.25-1.48c0-.55.08-1.04.25-1.49zm-6.36-1.94v1.27h.02a2.31 2.31 0 0 1 .87-1.05 2.5 2.5 0 0 1 1.31-.4c.12 0 .26.02.4.06v1.75a3.77 3.77 0 0 0-.66-.07 2 2 0 0 0-.87.18c-.24.11-.43.27-.58.47-.14.2-.25.43-.3.7-.07.26-.1.54-.1.85v3.08h-1.87v-6.84h1.78zm-7.44 4.23c.05.26.14.5.27.7.12.2.3.37.5.5.21.12.48.18.8.18.31 0 .58-.06.8-.18.2-.13.38-.3.5-.5.14-.2.23-.44.28-.7a4.02 4.02 0 0 0 0-1.6c-.05-.27-.14-.5-.27-.7a1.5 1.5 0 0 0-.52-.5c-.21-.13-.48-.2-.8-.2-.31 0-.58.07-.79.2-.2.12-.38.29-.5.5-.13.2-.22.43-.27.7a4.12 4.12 0 0 0 0 1.6zm-1.7-2.29a3.2 3.2 0 0 1 1.81-1.86c.43-.18.92-.26 1.46-.26.53 0 1.02.08 1.45.26a3.19 3.19 0 0 1 1.83 1.86c.17.45.25.94.25 1.49s-.08 1.04-.25 1.48a3.1 3.1 0 0 1-1.83 1.85c-.43.17-.92.25-1.45.25-.54 0-1.03-.08-1.46-.25a3.12 3.12 0 0 1-1.82-1.85 4.15 4.15 0 0 1-.25-1.48c0-.55.09-1.04.25-1.49zm-.28-1.94v1.26h-1.38v3.39c0 .31.06.53.16.63.1.1.32.16.64.16a3.38 3.38 0 0 0 .58-.05v1.45a12.6 12.6 0 0 1-1.1.07c-.29 0-.56-.02-.82-.06a1.94 1.94 0 0 1-.69-.23c-.2-.12-.35-.28-.47-.5a1.75 1.75 0 0 1-.17-.82V36.7h-1.13v-1.26h1.13V33.4h1.87v2.05h1.38zm-6.42 3.5a.83.83 0 0 1-.3.16 5.6 5.6 0 0 1-.81.17 7.95 7.95 0 0 0-.86.17c-.13.04-.25.1-.35.18a.85.85 0 0 0-.25.28.92.92 0 0 0-.1.44c0 .17.04.3.1.42.06.12.15.2.25.27s.23.12.37.14c.14.03.29.04.44.04.37 0 .65-.06.85-.18.2-.13.36-.27.45-.45.1-.17.16-.34.18-.52l.03-.42v-.7zm-4.32-1.4c.02-.43.13-.8.33-1.1.19-.28.44-.52.74-.7.3-.17.63-.3 1-.37a5.72 5.72 0 0 1 2.18-.04c.35.05.67.14.96.29.29.14.53.33.71.58.19.26.28.59.28 1v3.56c0 .31.02.6.05.89.04.28.1.5.19.63h-1.9a2.6 2.6 0 0 1-.14-.66c-.3.31-.65.53-1.05.65a4.23 4.23 0 0 1-2.15.07c-.28-.08-.53-.2-.74-.37a1.72 1.72 0 0 1-.5-.64 2.15 2.15 0 0 1-.17-.91 2 2 0 0 1 .2-.96c.14-.25.31-.45.53-.6.21-.15.46-.27.74-.34a7.95 7.95 0 0 1 1.67-.28c.27-.03.51-.07.72-.12.21-.06.38-.13.5-.24.13-.1.18-.24.17-.44a1 1 0 0 0-.1-.48.73.73 0 0 0-.26-.28 1.04 1.04 0 0 0-.38-.13c-.15-.02-.3-.03-.47-.03-.37 0-.66.07-.87.23-.21.16-.33.43-.37.8H20.4zm-2.71-.5c-.23-.24-.57-.37-1.03-.37-.3 0-.54.06-.74.16a1.42 1.42 0 0 0-.73.85c-.05.17-.07.32-.08.45h3.04a2.18 2.18 0 0 0-.46-1.09zm-2.12 3.6c.28.28.68.41 1.21.41.38 0 .7-.1.98-.28.27-.2.44-.4.5-.6h1.65c-.26.82-.67 1.4-1.21 1.76-.55.35-1.21.52-1.98.52-.54 0-1.02-.08-1.46-.25a3.02 3.02 0 0 1-1.78-1.87 4.17 4.17 0 0 1 0-2.89 3.35 3.35 0 0 1 3.24-2.18 3.03 3.03 0 0 1 2.58 1.24c.27.38.47.81.6 1.3.12.48.16 1 .13 1.52H15.1c.02.6.18 1.05.46 1.32zm-4.46-5.2v1.27h.03a2.31 2.31 0 0 1 .87-1.05 2.5 2.5 0 0 1 1.3-.4c.13 0 .26.02.41.06v1.75a3.73 3.73 0 0 0-.67-.07 2 2 0 0 0-.87.18 1.5 1.5 0 0 0-.58.47c-.14.2-.24.43-.3.7-.07.26-.1.54-.1.85v3.08H9.33v-6.84h1.78zm-4.66-.08a2.08 2.08 0 0 0-1.09-.88 2.42 2.42 0 0 0-1.92.15c-.32.18-.59.42-.79.73-.2.3-.35.65-.44 1.04a5.19 5.19 0 0 0 0 2.36c.1.37.24.71.44 1.01a2.26 2.26 0 0 0 1.98 1c.63 0 1.13-.2 1.49-.59.35-.39.57-.9.65-1.53h2c-.05.59-.19 1.12-.4 1.6a3.7 3.7 0 0 1-2.14 1.98c-.49.18-1.02.27-1.6.27-.72 0-1.37-.13-1.95-.38a4.17 4.17 0 0 1-1.45-1.04 4.6 4.6 0 0 1-.91-1.55 5.92 5.92 0 0 1 0-3.89c.2-.6.51-1.14.9-1.58.4-.45.89-.8 1.46-1.06a4.75 4.75 0 0 1 1.95-.39c.52 0 1.01.08 1.47.23.46.15.88.37 1.24.65a3.54 3.54 0 0 1 1.35 2.52h-2a1.7 1.7 0 0 0-.24-.65zm133.11-.14l-2.55 7.1c-.48 1.34-.98 2.88-2.67 2.88-.4 0-.64-.05-.87-.1l.03-.44c.05-.31.27-.51.56-.5h.09c1.14 0 1.52-1.58 1.52-1.71 0-.15-.16-.5-.24-.74l-2.36-6.49h.9c.27 0 .54.19.65.44l1.72 5.32h.03l1.76-5.32a.74.74 0 0 1 .64-.44h.8zm-8.37 6.96v-3.6c0-1.63-.35-2.42-1.46-2.49-1.46 0-2.11 1.18-2.11 2.87v2.68a.58.58 0 0 1-.58.53h-.7v-6.95h.65c.33 0 .59.26.59.58v.53h.02c.38-.8 1.3-1.27 2.27-1.27 1.8 0 2.6 1.12 2.6 2.98v3.58a.58.58 0 0 1-.57.55h-.7zm-19.76 0v-4.15c0-.86-.2-1.94-1.24-1.94-1.3 0-1.83 1.29-1.83 2.58v2.98a.58.58 0 0 1-.57.52h-.7v-4.14c0-.86-.2-1.94-1.24-1.94-1.3 0-1.82 1.29-1.82 2.58v2.92c0 .32-.27.58-.59.58h-.7v-6.95h.62c.32 0 .58.26.59.58v.43h.02c.5-.8 1.19-1.17 2.2-1.17.8 0 1.61.4 1.98 1.35.47-1 1.52-1.35 2.15-1.35 1.77 0 2.4 1.14 2.4 2.66v4a.58.58 0 0 1-.56.45h-.71zm-16.54-2.73c0 2.06-1.55 2.86-3.54 2.87-.66 0-1.3-.17-1.93-.38l.04-.37c.04-.34.27-.6.56-.54.46.14 1 .27 1.5.27.85 0 2.1-.48 2.1-1.77-.01-1.23-1.17-1.65-2.24-2.17-1.08-.52-2.08-1.1-2.08-2.6 0-1.7 1.32-2.6 3.1-2.61.48 0 1.04.06 1.58.2l-.02.42c-.04.29-.28.52-.58.5-.28-.06-.56-.1-.92-.1-.83 0-1.89.3-1.89 1.46.02 1.1 1.18 1.46 2.23 2 1.08.55 2.09 1.22 2.1 2.82zm6.82-4.23l-2.55 7.1c-.48 1.34-.98 2.88-2.67 2.88-.4 0-.64-.05-.87-.1l.04-.44c.05-.31.26-.51.56-.5h.08c1.14 0 1.52-1.58 1.52-1.71 0-.15-.16-.5-.24-.74l-2.35-6.49h.89c.28 0 .54.19.65.44L98.49 41h.03l1.76-5.32a.74.74 0 0 1 .64-.44h.8zm15.69 1.04h-1.28v5.41a.58.58 0 0 1-.57.5h-.7v-5.91h-1.06a.58.58 0 0 1-.58-.5v-.54h1.63v-.55c0-1.7.44-2.8 2.33-2.8.32 0 .6.04.86.08l-.03.42c-.01.31-.27.56-.57.54h-.07c-1.1 0-1.24.7-1.24 1.65v.66h1.84v.48a.58.58 0 0 1-.56.56zm4.27 5.04c1.5 0 2.16-1.36 2.16-2.6 0-1.32-.8-2.6-2.16-2.6-1.37 0-2.18 1.28-2.18 2.6 0 1.24.67 2.6 2.18 2.6zm0-6.24c2.1 0 3.52 1.52 3.52 3.64 0 1.99-1.44 3.64-3.52 3.64a3.51 3.51 0 0 1-3.54-3.64c0-2.12 1.42-3.64 3.54-3.64zM80.3 33.78c-.43.02-.72-.23-.73-.62 0-.14.03-.26.13-.4.1-.2.11-.22.1-.3 0-.24-.37-.25-.47-.24-1.37.04-1.73 1.9-2.02 3.41l-.15.8c.8.11 1.36-.03 1.67-.23.44-.29-.13-.58-.05-.91.07-.33.37-.5.6-.5.34 0 .58.34.58.7-.02.58-.79 1.38-2.34 1.35-.19 0-.36-.02-.52-.04l-.3 1.62c-.26 1.23-.6 2.9-1.85 4.36-1.07 1.28-2.15 1.48-2.64 1.5-.9.02-1.51-.46-1.53-1.11-.03-.63.53-.97.9-.98.48-.02.81.33.83.74 0 .34-.17.45-.29.51-.08.07-.2.13-.2.27.01.06.08.2.28.2.38-.02.64-.2.81-.33.89-.74 1.23-2.03 1.68-4.38l.1-.57c.14-.76.31-1.61.57-2.46-.63-.47-1-1.06-1.84-1.28-.57-.16-.92-.03-1.17.29-.3.37-.2.85.09 1.13l.46.52c.57.66.89 1.17.77 1.87-.19 1.1-1.5 1.95-3.06 1.47-1.32-.4-1.57-1.35-1.41-1.87.14-.45.5-.54.85-.43.38.12.53.58.42.93l-.07.19c-.04.1-.12.18-.16.3-.09.28.3.47.56.56.6.18 1.17-.13 1.32-.61.14-.45-.14-.76-.26-.87l-.56-.6c-.26-.3-.82-1.1-.55-2 .11-.34.33-.71.66-.95.69-.52 1.43-.6 2.14-.4.92.27 1.36.88 1.94 1.35.32-.94.76-1.87 1.43-2.64a3.28 3.28 0 0 1 2.34-1.26c.93-.03 1.63.4 1.66 1.06 0 .28-.16.84-.72.85zm-4.93-5.3a9.16 9.16 0 0 0-9.15 9.17 9.16 9.16 0 1 0 9.15-9.17z"/></g></svg>