<svg xmlns="http://www.w3.org/2000/svg" viewBox="0 0 220 60"><g id="Page-1" fill="none" fill-rule="evenodd"><g id="partner-sentry" fill="#4E4E4E"><path id="Shape" d="M133.75 36.23L119.08 17.3h-3.66v25.37h3.7V23.25L134.2 42.7h3.23V17.3h-3.68v18.93zm-36.92-4.7h13.14v-3.28H96.83V20.6h14.82v-3.28h-18.6V42.7h18.8v-3.28H96.83v-7.9zM81.38 28.3c-5.13-1.23-6.53-2.2-6.53-4.55 0-2.13 1.88-3.55 4.68-3.55 2.32 0 4.62.82 7.02 2.53l2-2.83a13.98 13.98 0 0 0-8.95-2.95c-5.02 0-8.52 2.98-8.52 7.23 0 4.57 2.95 6.14 8.4 7.45 4.77 1.1 6.24 2.14 6.24 4.45 0 2.27-1.97 3.75-5.05 3.75-3 0-5.55-1-8.22-3.23l-2.25 2.67c2.95 2.5 6.5 3.83 10.35 3.83 5.42 0 8.95-2.93 8.95-7.45 0-3.88-2.28-5.92-8.13-7.35zm123.25-11l-7.66 11.97-7.57-11.97h-4.43l10.06 15.35V42.7h3.8V32.55l10.04-15.22h-4.25v-.03zm-64.18 3.45h8.3V42.7h3.8V20.75h8.32v-3.43h-20.44v3.43h.02zm38.08 12.02c3.82-1.05 5.94-3.75 5.94-7.57 0-4.88-3.57-7.9-9.32-7.9h-11.28v25.37h3.78v-9.12h6.4l6.45 9.13h4.4l-6.95-9.76.58-.15zm-10.88-2.47v-9.63h7.13c3.72 0 5.84 1.75 5.84 4.8 0 2.96-2.27 4.83-5.8 4.83h-7.17zM39.6 10.42a4.48 4.48 0 0 0-3.93-2.27c-1.65 0-3.1.85-3.92 2.28l-6.45 11.2 1.65.95a31.68 31.68 0 0 1 15.78 25.5H38.2c-.28-4.1-1.5-8.1-3.58-11.68a27 27 0 0 0-9.92-9.92l-1.65-.96L17 35.98l1.65.95c4 2.3 6.83 6.57 7.4 11.12H15.7a.7.7 0 0 1-.65-.38c-.08-.15-.2-.42 0-.75l2.9-5c-.97-.82-2.1-1.45-3.27-1.87l-2.93 5a4.45 4.45 0 0 0 0 4.53 4.48 4.48 0 0 0 3.93 2.27h14.25v-1.9a18.95 18.95 0 0 0-7.83-15.3l2.27-3.92a23.4 23.4 0 0 1 10.08 19.2v1.9h12.07v-1.9a35.41 35.41 0 0 0-16.1-29.67l4.6-7.96c.2-.33.48-.38.65-.38.16 0 .45.05.66.38l20 34.63c.2.32.07.6 0 .74a.7.7 0 0 1-.66.38h-4.7c.05 1.28.08 2.53 0 3.78h4.7c1.66 0 3.1-.85 3.93-2.28.82-1.42.82-3.1 0-4.52l-20-34.6z"/></g></g></svg>