<svg width="220" height="60" viewBox="0 0 220 60" xmlns="http://www.w3.org/2000/svg"><g id="Page-1" fill="none" fill-rule="evenodd"><g id="sponsor-vehikl" fill="#585858"><path d="M196.28 47.1l-13.228-17.704 12.856-16.916h-11.05l-11 15.755V12.48h-9.386v34.686h9.385V31.6l10.64 15.566h11.832l-.05-.065v.067h21.265v-8.103H205.76V12.48h-9.48V47.1zM12.083 57C6.99 57 3 52.91 3 47.686V12.314C3 7.09 6.99 3 12.08 3c.344 0 .69.02 1.035.056l28.974 3.15c4.182.457 7.46 4.53 7.46 9.275v29.04c0 4.745-3.28 8.818-7.462 9.273l-28.975 3.152c-.344.037-.69.056-1.033.056h.003zm0-49.58c-2.652 0-4.65 2.103-4.65 4.894v35.372c0 2.79 1.998 4.895 4.65 4.895.182 0 .368-.01.552-.03L41.61 49.4c1.902-.207 3.51-2.443 3.51-4.88V15.48c0-2.438-1.608-4.673-3.51-4.88L12.633 7.45c-.184-.02-.37-.03-.553-.03h.003zm26.515 11.667c-.296-1.648-1.554-3.224-3.23-3.57-1.568-.32-3.2.535-3.933 2.136-.884 1.935-.313 4.41 1.32 5.695.19.15.257.304.234.546-.03.327-.035.658-.068.984-.204 1.987-1.064 3.483-2.692 4.384-.655.363-1.342.674-2.04.954-1.27.51-2.574.978-3.883 1.48-.262.1-.515.235-.792.364-.007-.114-.015-.19-.015-.265 0-3.783.002-7.567-.008-11.35 0-.238.103-.334.255-.44 1.74-1.195 2.352-3.644 1.443-5.72-.94-2.14-3.193-3.365-5.262-2.747-1.706.51-2.768 1.743-2.974 3.674-.198 1.85.47 3.4 1.924 4.555.187.15.28.285.28.544-.01 6.456-.01 12.91-.002 19.364 0 .25-.066.402-.267.552-1.78 1.34-2.48 3.87-1.62 5.86.88 2.043 3.03 3.022 5.07 2.3 1.705-.602 2.795-1.867 3.16-3.718.36-1.828-.14-3.38-1.496-4.456-.452-.358-.53-.72-.506-1.254.055-1.216.553-2.113 1.582-2.627.69-.346 1.38-.687 2.083-.97 1.575-.633 3.152-1.18 4.608-2.007 1.816-1.032 3.218-2.497 4.09-4.546.63-1.48.89-3.056.945-4.688.01-.247-.006-.464.23-.634 1.263-.916 1.87-2.674 1.563-4.398zm-3.693 2.918c-1.055-.055-1.91-1.073-1.91-2.282.003-1.206.87-2.134 1.925-2.07 1.043.06 1.884 1.072 1.887 2.258.003 1.203-.854 2.15-1.903 2.096zM21.36 18.38c-1.215-.06-2.205-1.166-2.203-2.474.002-1.286.983-2.252 2.188-2.168 1.18.083 2.144 1.187 2.144 2.447 0 1.267-.954 2.254-2.13 2.195zm.005 27.884c-1.212.1-2.21-.886-2.208-2.19.003-1.29.98-2.378 2.184-2.45 1.18-.07 2.146.908 2.15 2.17.004 1.264-.945 2.373-2.124 2.47zm50.505.902L57.28 12.48h10.076l6.962 19.404c.063.205.193.7.392 1.48.198.783.455 1.838.772 3.164.254-1.058.49-2.014.713-2.866.222-.854.388-1.446.5-1.778l6.913-19.404H93.68L79.09 47.166h-7.22zm21.86 0V12.48h21.313v7.605h-12.07v6.018h12.076v7.44H102.97v5.852h12.07v7.77H93.73zm23.994 0V12.48h9.48v13.48h12.64V12.48h9.506v34.686h-9.505v-14.12h-12.64v14.12h-9.48zm34.387 0h9.578V12.48h-9.576v34.686z" id="Combined-Shape"/></g></g></svg>