<svg xmlns="http://www.w3.org/2000/svg" width="220" height="60" viewBox="0 0 220 60"><g fill="#414042" fill-rule="evenodd" transform="translate(8 17)"><polygon points="4.22 2.655 4.22 19.831 13.595 19.831 13.595 23.348 .003 23.348 .003 2.655"/><path d="M27.45 2.66h3.85l8.97 20.69h-4.6l-1.85-4.48h-8.89l-1.85 4.48h-4.6l8.97-20.7zm1.94 5.47l-3.02 7.2h6l-2.98-7.2zm22.63 6.71h-2.06v8.5h-4.22V2.67h9.44A6.2 6.2 0 0 1 61.54 9c0 1.72-.6 3.09-1.8 4.1a8.11 8.11 0 0 1-3.25 1.53l5.81 8.71h-5.12l-5.16-8.5zm-2.06-8.67v5.7h4.3A2.8 2.8 0 0 0 57.1 9a2.68 2.68 0 0 0-.83-2.04 2.81 2.81 0 0 0-2-.78h-4.31zm25.47-3.51h3.86l8.96 20.69h-4.6l-1.85-4.48h-8.88l-1.85 4.48h-4.6l8.96-20.7zm1.94 5.47l-3.02 7.2h6l-2.98-7.2zm30.98 1.28a6.34 6.34 0 0 0-5.7-3.16c-1.93 0-3.51.63-4.75 1.9a6.7 6.7 0 0 0-1.83 4.88c0 2 .6 3.64 1.83 4.9a6.3 6.3 0 0 0 4.72 1.89 6.36 6.36 0 0 0 5.71-3.18l3.93 1.76a10.73 10.73 0 0 1-9.6 5.31c-3.13 0-5.75-1-7.84-3.02a10.2 10.2 0 0 1-3.13-7.66c0-3.08 1.05-5.64 3.13-7.67a10.8 10.8 0 0 1 7.85-3.05 10.4 10.4 0 0 1 7.76 3.09c.7.66 1.3 1.42 1.78 2.25l-3.86 1.76zm46.6-7.12c2.79-.04 5.5.93 7.63 2.71l-2.48 3a7.45 7.45 0 0 0-5.1-1.93c-1.08 0-1.92.23-2.53.7a1.7 1.7 0 0 0-.67 1.39c0 .61.32 1.18.86 1.49.44.3 1.53.7 3.25 1.18 2.03.52 3.55 1.1 4.54 1.72a5.49 5.49 0 0 1 2.62 4.83c0 1.89-.81 3.46-2.45 4.7a9.24 9.24 0 0 1-5.64 1.63 12.23 12.23 0 0 1-8.65-3.4l2.36-3.01a9.5 9.5 0 0 0 2.7 1.85c1.1.57 2.34.86 3.58.86 1.17 0 2.1-.25 2.77-.74.57-.4.91-1.05.92-1.74 0-.67-.35-1.3-.93-1.65-.46-.3-1.52-.7-3.18-1.16a21.75 21.75 0 0 1-4.5-1.68 5.06 5.06 0 0 1-2.7-4.61 5.38 5.38 0 0 1 2.16-4.45 8.53 8.53 0 0 1 5.44-1.69z"/><polygon points="168.7 2.655 185.521 2.655 185.521 6.142 179.226 6.142 179.226 23.346 174.977 23.346 174.977 6.144 168.7 6.144"/><path d="M199.74 2.3c2.79-.05 5.5.92 7.63 2.7l-2.48 3a7.44 7.44 0 0 0-5.1-1.93c-1.08 0-1.92.23-2.53.7a1.7 1.7 0 0 0-.68 1.39c0 .61.33 1.18.87 1.49.45.3 1.53.7 3.25 1.18 2.04.52 3.55 1.1 4.54 1.72a5.49 5.49 0 0 1 2.63 4.83c0 1.89-.82 3.46-2.46 4.7a9.24 9.24 0 0 1-5.63 1.63 12.23 12.23 0 0 1-8.66-3.4l2.36-3.01a9.5 9.5 0 0 0 2.7 1.85c1.11.57 2.34.86 3.58.86 1.17 0 2.1-.25 2.78-.74.56-.4.9-1.05.92-1.74 0-.67-.36-1.3-.94-1.65-.44-.32-1.5-.71-3.17-1.17a21.75 21.75 0 0 1-4.5-1.68 5.06 5.06 0 0 1-2.7-4.61 5.38 5.38 0 0 1 2.15-4.44 8.57 8.57 0 0 1 5.44-1.69zM121.3 26.83v-8.62h3.15v3.6l15.62-7.54a7.8 7.8 0 0 0 1.1-.6 4.04 4.04 0 0 0-.35-.24l-16.38-8.31v5.22h-3.14V0l21.02 10.68c.77.42 2.55 1.6 2.36 3.26-.18 1.6-2.15 2.7-3.32 3.21l-20.07 9.7z"/><path d="M129.25 16.7h-11.74a1.07 1.07 0 1 1 0-2.13h11.74a1.07 1.07 0 1 1 0 2.14zm-14.12 0h-2.16a1.07 1.07 0 1 1 0-2.13h2.16a1.07 1.07 0 1 1 0 2.14zm4.78-2.84h-2.16a1.07 1.07 0 1 1 0-2.14h2.16a1.07 1.07 0 1 1 0 2.14zm13.65 0h-11.21a1.07 1.07 0 1 1 0-2.14h11.21a1.07 1.07 0 1 1 0 2.14z"/></g></svg>