<svg xmlns="http://www.w3.org/2000/svg" width="220" height="60" viewBox="0 0 220 60">
  <path fill="#585858" fill-rule="evenodd" d="M55.3752941,23.7257143 L55.3752941,26.0614286 L47.8219608,26.0614286 L47.8219608,23.7257143 L50.2721569,23.7257143 L50.2721569,11.1728571 L46.6788235,11.1728571 L46.6788235,14.52 L44.0905882,14.52 L44.0905882,8.83714286 L59.1282353,8.83714286 L59.1282353,14.52 L56.54,14.52 L56.54,11.1728571 L52.9466667,11.1728571 L52.9466667,23.7257143 L55.3752941,23.7257143 Z M73.4670588,23.7257143 L73.4670588,26.0614286 L65.9654902,26.0614286 L65.9654902,23.7257143 L68.3898039,23.7257143 L68.3898039,11.1728571 L65.9654902,11.1728571 L65.9654902,8.83714286 L73.4670588,8.83714286 L73.4670588,11.1728571 L71.0384314,11.1728571 L71.0384314,23.7257143 L73.4670588,23.7257143 Z M90.765098,14.25 C90.7176471,12.21 90.64,11.7171429 90.4415686,11.52 C90.2431373,11.3228571 90.0964706,11.2971429 89.3545098,11.2971429 L84.8941176,11.2971429 C84.1262745,11.2971429 83.9537255,11.3485714 83.7811765,11.52 C83.5309804,11.7642857 83.4317647,12.48 83.4317647,17.4514286 C83.4317647,22.4228571 83.5309804,23.1342857 83.7811765,23.3828571 C83.9537255,23.5542857 84.1262745,23.6057143 84.8941176,23.6057143 L89.4752941,23.6057143 C90.1698039,23.6057143 90.4156863,23.5542857 90.592549,23.3828571 C90.7694118,23.2114286 90.9160784,22.4228571 90.9160784,20.2585714 L90.9160784,19.4014286 L87.2752941,19.4014286 L87.2752941,17.1385714 L93.6164706,17.1385714 L93.6164706,19.71 C93.6164706,23.4985714 93.3705882,24.5314286 92.6027451,25.2814286 C92.0290196,25.8471429 91.3086275,26.0442857 89.9023529,26.0442857 L84.3247059,26.0442857 C82.8407843,26.0442857 82.2713725,25.8728571 81.7364706,25.3542857 C80.8737255,24.4971429 80.5501961,23.2371429 80.5501961,17.43 C80.5501961,11.6228571 80.8737255,10.3671429 81.7364706,9.50571429 C82.2584314,8.98714286 82.8278431,8.81571429 84.3247059,8.81571429 L89.7815686,8.81571429 C91.1921569,8.81571429 91.9858824,9.01285714 92.4301961,9.45428571 C93.2239216,10.2428571 93.4223529,11.1685714 93.4741176,14.2285714 L90.765098,14.25 Z M115.366275,23.7257143 L117.695686,23.7257143 L117.695686,26.0614286 L110.388235,26.0614286 L110.388235,23.7257143 L112.717647,23.7257143 L112.717647,18.2614286 L105.686275,18.2614286 L105.686275,23.7257143 L108.011373,23.7257143 L108.011373,26.0614286 L100.703922,26.0614286 L100.703922,23.7257143 L103.033333,23.7257143 L103.033333,11.1728571 L100.703922,11.1728571 L100.703922,8.83714286 L108.011373,8.83714286 L108.011373,11.1728571 L105.686275,11.1728571 L105.686275,15.9942857 L112.717647,15.9942857 L112.717647,11.1728571 L110.388235,11.1728571 L110.388235,8.83714286 L117.695686,8.83714286 L117.695686,11.1728571 L115.366275,11.1728571 L115.366275,23.7257143 Z M135.77451,23.7257143 L135.77451,26.0614286 L128.22549,26.0614286 L128.22549,23.7257143 L130.68,23.7257143 L130.68,11.1728571 L127.086667,11.1728571 L127.086667,14.52 L124.498431,14.52 L124.498431,8.83714286 L139.518824,8.83714286 L139.518824,14.52 L136.930588,14.52 L136.930588,11.1728571 L133.337255,11.1728571 L133.337255,23.7257143 L135.77451,23.7257143 Z M146.291373,11.1728571 L146.291373,8.83714286 L159.862353,8.83714286 L159.862353,14.01 L157.274118,14.01 L157.274118,11.1557143 L151.278039,11.1557143 L151.278039,15.9771429 L155.936863,15.9771429 L155.936863,18.24 L151.278039,18.24 L151.278039,23.7042857 L157.463922,23.7042857 L157.463922,20.4814286 L160.052157,20.4814286 L160.052157,26.0528571 L146.291373,26.0528571 L146.291373,23.7171429 L148.616471,23.7171429 L148.616471,11.1728571 L146.291373,11.1728571 Z M179.804706,11.1728571 L177.475294,11.1728571 L177.475294,8.83714286 L184.584314,8.83714286 L184.584314,11.1728571 L182.306667,11.1728571 L182.306667,26.0614286 L179.136078,26.0614286 C178.42,26.0614286 178.273333,25.9157143 177.975686,25.2471429 L172.173725,12.0085714 L171.802745,12.0085714 L171.802745,23.7214286 L174.132157,23.7214286 L174.132157,26.0571429 L166.975686,26.0571429 L166.975686,23.7214286 L169.305098,23.7214286 L169.305098,11.1728571 L166.975686,11.1728571 L166.975686,8.83714286 L172.721569,8.83714286 C173.441961,8.83714286 173.584314,8.98714286 173.886275,9.65142857 L179.433725,22.2985714 L179.80902,22.2985714 L179.804706,11.1728571 Z M197.870588,25.3885714 C197.107059,24.63 196.887059,23.7171429 196.887059,20.2028571 C196.887059,16.6885714 197.107059,15.7757143 197.870588,15.0171429 C198.349412,14.5371429 199.048235,14.3442857 200.204314,14.3442857 L203.525882,14.3442857 C204.595686,14.3442857 205.07451,14.5628571 205.449804,14.9314286 C206.019216,15.4928571 206.234902,16.2771429 206.234902,18.4671429 L204.030588,18.4671429 C203.987451,16.95 203.901176,16.6885714 203.767451,16.56 C203.633725,16.4314286 203.461176,16.3628571 202.960784,16.3628571 L200.493333,16.3628571 C199.816078,16.3628571 199.630588,16.4271429 199.488235,16.5814286 C199.272549,16.7957143 199.160392,17.2114286 199.160392,20.2028571 C199.160392,23.1942857 199.268235,23.6314286 199.488235,23.8242857 C199.708235,24.0171429 199.816078,24.0428571 200.493333,24.0428571 L202.982353,24.0428571 C203.46549,24.0428571 203.681176,24 203.845098,23.8457143 C204.00902,23.6914286 204.086667,23.2585714 204.086667,21.7842857 L206.295294,21.7842857 C206.295294,24.2142857 206.075294,24.8871429 205.488627,25.4742857 C205.139216,25.8214286 204.591373,26.0614286 203.564706,26.0614286 L200.212941,26.0614286 C199.052549,26.0614286 198.349412,25.8642857 197.870588,25.3885714 Z M210.565882,25.3885714 C209.802353,24.63 209.582353,23.7171429 209.582353,20.2028571 C209.582353,16.6885714 209.802353,15.7757143 210.565882,15.0171429 C211.044706,14.5371429 211.743529,14.3442857 212.899608,14.3442857 L216.264314,14.3442857 C217.420392,14.3442857 218.119216,14.5371429 218.602353,15.0171429 C219.365882,15.7757143 219.585882,16.6885714 219.585882,20.2028571 C219.585882,23.7171429 219.365882,24.63 218.602353,25.3885714 C218.119216,25.8642857 217.420392,26.0614286 216.264314,26.0614286 L212.899608,26.0614286 C211.730588,26.0614286 211.031765,25.8642857 210.565882,25.3885714 Z M212.179216,23.8242857 C212.33451,23.9785714 212.507059,24.0428571 213.184314,24.0428571 L215.979608,24.0428571 C216.656863,24.0428571 216.842353,23.9785714 216.984706,23.8242857 C217.204706,23.61 217.312549,23.1942857 217.312549,20.2028571 C217.312549,17.2114286 217.204706,16.7957143 216.984706,16.5814286 C216.833725,16.4314286 216.656863,16.3628571 215.979608,16.3628571 L213.154118,16.3628571 C212.476863,16.3628571 212.291373,16.4271429 212.14902,16.5814286 C211.933333,16.7957143 211.821176,17.2114286 211.821176,20.2028571 C211.821176,23.1942857 211.950588,23.61 212.166275,23.8242857 L212.179216,23.8242857 Z M27.6294118,7.58142857 L15.7192157,0.724285714 C14.9193771,0.321117784 13.9739562,0.321117784 13.1741176,0.724285714 L1.27254902,7.58142857 C0.522179206,8.06904342 0.0497936904,8.88199778 7.10542736e-15,9.77142857 L7.10542736e-15,23.43 C0.0623952734,24.3053334 0.533211611,25.1013167 1.27254902,25.5814286 L13.1784314,32.4385714 C13.9784364,32.8410472 14.9235244,32.8410472 15.7235294,32.4385714 L27.6294118,25.5814286 C28.3797816,25.0938137 28.8521671,24.2808594 28.9019608,23.3914286 L28.9019608,9.75 C28.8455011,8.86828306 28.373903,8.06462513 27.6294118,7.58142857 L27.6294118,7.58142857 Z M23.6435294,17.1728571 C23.6435294,17.5089619 23.3692819,17.7814286 23.0309804,17.7814286 L19.2090196,17.7814286 C17.2505031,17.7813589 15.6581462,19.3499852 15.6415686,21.2957143 L15.6415686,25.0928571 C15.6415686,25.2542603 15.5770324,25.4090528 15.4621572,25.5231821 C15.3472819,25.6373114 15.1914777,25.7014286 15.0290196,25.7014286 L13.86,25.7014286 C13.6975419,25.7014286 13.5417377,25.6373114 13.4268624,25.5231821 C13.3119872,25.4090528 13.247451,25.2542603 13.247451,25.0928571 L13.247451,21.2957143 C13.2474517,20.3549683 12.8710042,19.4528152 12.2010441,18.7880094 C11.531084,18.1232035 10.6225803,17.750291 9.67568627,17.7514286 L5.87098039,17.7514286 C5.53267891,17.7514286 5.25843137,17.4789619 5.25843137,17.1428571 L5.25843137,15.9985714 C5.25843137,15.6624667 5.53267891,15.39 5.87098039,15.39 L9.69294118,15.39 C11.6547975,15.3900356 13.2485309,13.8162242 13.2603922,11.8671429 L13.2603922,8.07 C13.2569235,7.90858654 13.318156,7.75241874 13.4306119,7.63587031 C13.5430679,7.51932187 13.69753,7.45194557 13.86,7.44857143 L15.0117647,7.44857143 C15.1742228,7.44857143 15.330027,7.51268859 15.4449023,7.62681787 C15.5597775,7.74094715 15.6243137,7.89573968 15.6243137,8.05714286 L15.6243137,11.8671429 C15.624313,12.8078889 16.0007605,13.7100419 16.6707206,14.3748478 C17.3406807,15.0396536 18.2491844,15.4125661 19.1960784,15.4114286 L23.0180392,15.4114286 C23.1804973,15.4114286 23.3363016,15.4755457 23.4511768,15.589675 C23.566052,15.7038043 23.6305882,15.8585968 23.6305882,16.02 L23.6435294,17.1728571 Z" transform="translate(0 14)"/>
</svg>
