<svg xmlns="http://www.w3.org/2000/svg" viewBox="0 0 220 60"><g fill="none" transform="translate(35 12)"><path fill="#4E4E4E" d="M4.93.04h27.32a4.87 4.87 0 0 1 4.88 4.86v27.15a4.87 4.87 0 0 1-4.88 4.85H4.93a4.87 4.87 0 0 1-4.88-4.85V4.88A4.86 4.86 0 0 1 4.93.04z"/><path fill="#FFFFFF" d="M19.02 9.36A10.45 10.45 0 0 0 8.54 19.77c0 5.76 4.7 10.41 10.48 10.41s10.47-4.66 10.47-10.42c0-5.75-4.68-10.4-10.47-10.4zm0 17.75a7.36 7.36 0 0 1-7.38-7.34c0-4.04 3.3-7.33 7.38-7.33a7.36 7.36 0 0 1 7.38 7.33c0 4.05-3.3 7.34-7.38 7.34zm0-13.17v5.47c0 .15.17.26.31.19l4.89-2.52c.1-.06.14-.19.09-.3a6.08 6.08 0 0 0-5.07-3.05c-.11 0-.22.09-.22.2zm-6.84-4.01l-.65-.64a1.61 1.61 0 0 0-2.27 0l-.76.76a1.58 1.58 0 0 0 0 2.26l.63.62c.1.1.24.08.33-.02a12.33 12.33 0 0 1 2.68-2.66c.11-.07.13-.22.04-.32zm10.27-1.66V7.01c0-.88-.72-1.6-1.61-1.6h-3.75c-.89 0-1.6.72-1.6 1.6v1.3c0 .14.13.24.28.2a11.8 11.8 0 0 1 6.4-.03c.14.04.28-.06.28-.2z"/><path fill="#4E4E4E" d="M92.78 28.24c0 2.98-.77 5.16-2.3 6.55-1.55 1.38-3.9 2.08-7.07 2.08-1.16 0-3.57-.23-5.5-.65l.71-3.47c1.61.34 3.74.43 4.85.43 1.77 0 3.03-.36 3.78-1.08.76-.71 1.13-1.77 1.13-3.18v-.72c-.44.22-1.01.43-1.72.65-.71.21-1.53.33-2.46.33a9.27 9.27 0 0 1-3.31-.57 6.94 6.94 0 0 1-4.25-4.45 16.08 16.08 0 0 1 .04-8.76 8.06 8.06 0 0 1 4.81-4.84 10.9 10.9 0 0 1 4-.75c1.43 0 2.74.18 4.03.4 1.28.2 2.37.43 3.26.68v17.35zM80.55 19.6c0 1.83.4 3.86 1.21 4.71a4.14 4.14 0 0 0 3.14 1.28 6.73 6.73 0 0 0 3.5-.97V13.77a17.5 17.5 0 0 0-2.91-.37 4.4 4.4 0 0 0-3.67 1.65c-.84 1.04-1.27 2.86-1.27 4.56zm33.11 0c0 1.47-.2 2.59-.65 3.8a9 9 0 0 1-1.85 3.13 8.17 8.17 0 0 1-2.89 2c-1.12.47-2.85.74-3.72.74-.87-.02-2.59-.26-3.7-.74a8.38 8.38 0 0 1-4.74-5.12 10.31 10.31 0 0 1-.67-3.81c0-1.48.2-2.9.65-4.1a8.46 8.46 0 0 1 4.77-5.09 9.36 9.36 0 0 1 3.67-.7c1.33 0 2.55.24 3.68.7a8.05 8.05 0 0 1 2.88 1.99 9.2 9.2 0 0 1 1.87 3.1c.47 1.2.7 2.62.7 4.1zm-4.5 0c0-1.88-.41-3.46-1.22-4.55a3.97 3.97 0 0 0-3.4-1.66c-1.45 0-2.59.55-3.4 1.66-.81 1.1-1.2 2.67-1.2 4.56 0 1.9.4 3.2 1.21 4.3a3.95 3.95 0 0 0 3.4 1.67c1.45 0 2.59-.56 3.4-1.67a6.83 6.83 0 0 0 1.21-4.3zm14.3 9.67c-7.2.03-7.2-5.8-7.2-6.72l-.02-20.66 4.4-.7v20.53c0 .53 0 3.86 2.83 3.87v3.68zm7.76 0h-4.42V10.4l4.42-.7v19.57zM129 7.65A2.67 2.67 0 0 0 131.68 5c0-1.47-1.2-2.65-2.68-2.65A2.66 2.66 0 0 0 126.32 5c0 1.46 1.2 2.65 2.68 2.65zm13.21 2.08c1.45 0 2.68.17 3.67.53 1 .36 1.8.86 2.38 1.5.58.64 1 1.5 1.24 2.43.26.91.39 1.92.39 3.02v11.25c-.68.15-1.7.31-3.07.51-1.38.2-2.92.3-4.63.3-1.14 0-2.18-.1-3.12-.32a6.6 6.6 0 0 1-2.42-1.04 5.04 5.04 0 0 1-1.56-1.85 7.02 7.02 0 0 1-.56-2.95c0-1.08.21-1.76.63-2.5.43-.74 1-1.34 1.72-1.8.73-.48 1.56-.81 2.52-1.01a14.53 14.53 0 0 1 6.23.09v-.72c0-.5-.05-.98-.18-1.43a3.06 3.06 0 0 0-.63-1.2c-.3-.34-.7-.61-1.19-.8a5.23 5.23 0 0 0-1.88-.34c-1.01 0-1.93.13-2.78.27-.84.15-1.54.31-2.07.5l-.53-3.58a19.27 19.27 0 0 1 5.84-.86zm.37 15.86c1.35 0 2.36-.08 3.05-.22v-4.44a10.56 10.56 0 0 0-4.06-.21c-.5.06-.94.2-1.34.38-.4.2-.72.46-.95.8-.25.36-.36.56-.36 1.08 0 1.03.36 1.62 1 2.01.67.4 1.55.6 2.66.6zM55.7 9.84c1.45 0 2.68.18 3.67.53.99.36 1.79.86 2.37 1.5.6.65 1 1.51 1.25 2.43.26.91.38 1.92.38 3.03v11.24c-.67.15-1.7.31-3.07.52-1.37.2-2.91.3-4.62.3-1.14 0-2.19-.11-3.12-.33a6.6 6.6 0 0 1-2.42-1.04 5.04 5.04 0 0 1-1.56-1.85 7.02 7.02 0 0 1-.57-2.95c0-1.08.22-1.76.63-2.5.43-.73 1-1.34 1.73-1.8.73-.48 1.56-.81 2.52-1.01a14.53 14.53 0 0 1 6.23.09v-.72c0-.5-.06-.98-.18-1.43a3.06 3.06 0 0 0-.63-1.2c-.3-.34-.7-.61-1.2-.8a5.23 5.23 0 0 0-1.87-.34c-1.01 0-1.94.13-2.78.27-.84.15-1.54.32-2.07.5l-.53-3.58a17.6 17.6 0 0 1 2.43-.57c1.06-.2 2.2-.3 3.41-.3zm.38 15.87c1.35 0 2.35-.08 3.05-.21v-4.45a10.56 10.56 0 0 0-4.06-.21c-.5.06-.95.2-1.34.39-.4.19-.72.46-.96.8-.24.35-.36.55-.36 1.08 0 1.02.36 1.62 1.02 2 .65.4 1.54.6 2.65.6zm17.84 3.57c-7.21.03-7.21-5.8-7.21-6.72L66.68 1.9l4.4-.7v20.53c0 .53 0 3.86 2.83 3.87v3.68z"/></g></svg>