<svg width="32" height="32" viewBox="0 0 32 32" xmlns="http://www.w3.org/2000/svg"><path d="M0 16C0 7.163 7.162 0 16 0c8.837 0 16 7.162 16 16 0 8.837-7.162 16-16 16-8.837 0-16-7.162-16-16zm16 15c8.284 0 15-6.716 15-15 0-8.284-6.716-15-15-15C7.716 1 1 7.716 1 16c0 8.284 6.716 15 15 15zm-4.5-11h9c.818 0 1.544-.393 2-1-.456-.607-1.182-1-2-1h-9C9.567 18 8 16.433 8 14.5c0-.537.12-1.045.337-1.5C8.12 12.545 8 12.037 8 11.5 8 9.567 9.567 8 11.5 8v1C10.12 9 9 10.12 9 11.5c0 .17.017.34.05.5.63-.618 1.496-1 2.45-1h9c1.21 0 2.218-.86 2.45-2H11.5V8H24v.5c0 1.933-1.567 3.5-3.5 3.5h-9c-.818 0-1.544.393-2 1 .456.607 1.182 1 2 1h9c1.933 0 3.5 1.567 3.5 3.5 0 .537-.12 1.045-.337 1.5.216.455.337.963.337 1.5 0 1.933-1.567 3.5-3.5 3.5v-1H9.05c.232-1.14 1.24-2 2.45-2h9c.954 0 1.82-.382 2.45-1 .033.16.05.33.05.5 0 1.38-1.12 2.5-2.5 2.5l.002 1H8v-.5c0-1.933 1.567-3.5 3.5-3.5zm0-3C10.12 17 9 15.88 9 14.5c0-.17.017-.34.05-.5.63.618 1.496 1 2.45 1h9c1.38 0 2.5 1.12 2.5 2.5 0 .17-.017.34-.05.5-.63-.618-1.496-1-2.45-1h-9z" fill="#FFF" fill-rule="evenodd"/></svg>